<svg width="25" height="24" viewBox="0 0 25 24" fill="none" xmlns="http://www.w3.org/2000/svg">
<g id="Document">
<g id="Iconly/Light-Outline/Document">
<g id="Document_2">
<path id="Combined-Shape" fill-rule="evenodd" clip-rule="evenodd" d="M16.0816 2C19.2256 2 21.3376 4.153 21.3376 7.357V16.553C21.3376 19.785 19.2906 21.887 16.1226 21.907L8.42961 21.91C5.28561 21.91 3.17261 19.757 3.17261 16.553V7.357C3.17261 4.124 5.21961 2.023 8.38761 2.004L16.0806 2H16.0816ZM16.0816 3.5L8.39261 3.504C6.06461 3.518 4.67261 4.958 4.67261 7.357V16.553C4.67261 18.968 6.07761 20.41 8.42861 20.41L16.1176 20.407C18.4456 20.393 19.8376 18.951 19.8376 16.553V7.357C19.8376 4.942 18.4336 3.5 16.0816 3.5ZM15.8887 15.4737C16.3027 15.4737 16.6387 15.8097 16.6387 16.2237C16.6387 16.6377 16.3027 16.9737 15.8887 16.9737H8.66871C8.25471 16.9737 7.91871 16.6377 7.91871 16.2237C7.91871 15.8097 8.25471 15.4737 8.66871 15.4737H15.8887ZM15.8887 11.2872C16.3027 11.2872 16.6387 11.6232 16.6387 12.0372C16.6387 12.4512 16.3027 12.7872 15.8887 12.7872H8.66871C8.25471 12.7872 7.91871 12.4512 7.91871 12.0372C7.91871 11.6232 8.25471 11.2872 8.66871 11.2872H15.8887ZM11.4234 7.1104C11.8374 7.1104 12.1734 7.4464 12.1734 7.8604C12.1734 8.2744 11.8374 8.6104 11.4234 8.6104H8.66841C8.25441 8.6104 7.91841 8.2744 7.91841 7.8604C7.91841 7.4464 8.25441 7.1104 8.66841 7.1104H11.4234Z" fill="#384853"/>
</g>
</g>
</g>
</svg>
