<svg width="25" height="24" viewBox="0 0 25 24" fill="none" xmlns="http://www.w3.org/2000/svg">
<g id="Discovery">
<g id="Iconly/Bold/Discovery">
<g id="Discovery_2">
<path id="Vector" d="M12.1777 2C17.6977 2 22.1777 6.48 22.1777 12C22.1777 17.53 17.6977 22 12.1777 22C6.64773 22 2.17773 17.53 2.17773 12C2.17773 6.48 6.64773 2 12.1777 2ZM16.0277 8.71C16.1377 8.36 15.8177 8.03 15.4677 8.14L10.3477 9.74C10.1377 9.81 9.96773 9.97 9.90773 10.18L8.30773 15.31C8.19773 15.65 8.52773 15.98 8.86773 15.87L13.9677 14.27C14.1777 14.21 14.3477 14.04 14.4077 13.83L16.0277 8.71Z" fill="#0A66C2"/>
</g>
</g>
</g>
</svg>
