<svg width="23" height="22" viewBox="0 0 23 22" fill="none" xmlns="http://www.w3.org/2000/svg">
<g id="SVG">
<g id="Vector">
<path d="M8.57193 19.0404V16.2292C8.57192 15.5141 9.15484 14.9332 9.87707 14.9284H12.5227C13.2483 14.9284 13.8366 15.5107 13.8366 16.2292V19.0491C13.8364 19.6562 14.3259 20.1524 14.9389 20.1666H16.7027C18.4608 20.1666 19.8862 18.7556 19.8862 17.0149V9.01794C19.8768 8.33318 19.552 7.69015 19.0043 7.27186L12.9724 2.46144C11.9156 1.62386 10.4135 1.62386 9.35677 2.46144L3.35134 7.2806C2.80155 7.69719 2.47626 8.34128 2.46948 9.02666V17.0149C2.46948 18.7556 3.89479 20.1666 5.65298 20.1666H7.4167C8.04497 20.1666 8.55429 19.6623 8.55429 19.0404" fill="#0A66C2"/>
<path d="M8.57193 19.0404V16.2292C8.57192 15.5141 9.15484 14.9332 9.87707 14.9284H12.5227C13.2483 14.9284 13.8366 15.5107 13.8366 16.2292V19.0491C13.8364 19.6562 14.3259 20.1524 14.9389 20.1666H16.7027C18.4608 20.1666 19.8862 18.7556 19.8862 17.0149V9.01794C19.8768 8.33318 19.552 7.69015 19.0043 7.27186L12.9724 2.46144C11.9156 1.62386 10.4135 1.62386 9.35677 2.46144L3.35134 7.2806C2.80155 7.69719 2.47626 8.34128 2.46948 9.02666V17.0149C2.46948 18.7556 3.89479 20.1666 5.65298 20.1666H7.4167C8.04497 20.1666 8.55429 19.6623 8.55429 19.0404" stroke="#0A66C2" stroke-width="1.375" stroke-linecap="round" stroke-linejoin="round"/>
</g>
</g>
</svg>
