<svg width="23" height="22" viewBox="0 0 23 22" fill="none" xmlns="http://www.w3.org/2000/svg">
<g id="SVG">
<path id="Vector" d="M8.57169 19.0404V16.2292C8.57167 15.5141 9.1546 14.9332 9.87682 14.9284H12.5224C13.248 14.9284 13.8364 15.5107 13.8364 16.2292V19.0491C13.8362 19.6562 14.3257 20.1524 14.9387 20.1666H16.7024C18.4606 20.1666 19.8859 18.7556 19.8859 17.0149V9.01794C19.8766 8.33318 19.5518 7.69015 19.0041 7.27186L12.9721 2.46144C11.9154 1.62386 10.4133 1.62386 9.35652 2.46144L3.3511 7.2806C2.80131 7.69719 2.47601 8.34128 2.46924 9.02666V17.0149C2.46924 18.7556 3.89454 20.1666 5.65274 20.1666H7.41645C8.04473 20.1666 8.55404 19.6623 8.55404 19.0404" stroke="#384853" stroke-width="1.375" stroke-linecap="round" stroke-linejoin="round"/>
</g>
</svg>
