<svg width="31" height="31" viewBox="0 0 31 31" fill="none" xmlns="http://www.w3.org/2000/svg">
<g id="Frame">
<path id="Vector" d="M9.04182 7.75098C7.46516 7.7557 6.59261 7.79342 5.8756 8.09437C4.87129 8.5159 4.05342 9.29456 3.57563 10.2841C3.18564 11.0917 3.12183 12.1265 2.99419 14.1961L2.79419 17.4391C2.47679 22.5856 2.31808 25.1588 3.82826 26.7879C5.33842 28.4169 7.88259 28.4169 12.971 28.4169H18.0294C23.1178 28.4169 25.6619 28.4169 27.1721 26.7879C28.6823 25.1588 28.5235 22.5856 28.2062 17.4391L28.0061 14.1961C27.8785 12.1265 27.8147 11.0917 27.4247 10.2841C26.9469 9.29456 26.1291 8.5159 25.1248 8.09437C24.4078 7.79342 23.5351 7.7557 21.9585 7.75098" stroke="black" stroke-width="1.5" stroke-linecap="round"/>
<path id="Vector_2" d="M21.9582 9.04134L20.814 6.18086C20.3203 4.94671 19.8907 3.54672 18.6213 2.91826C17.9442 2.58301 17.1294 2.58301 15.4998 2.58301C13.8703 2.58301 13.0555 2.58301 12.3783 2.91826C11.1089 3.54672 10.6794 4.94671 10.1857 6.18086L9.0415 9.04134" stroke="black" stroke-width="1.5" stroke-linecap="round" stroke-linejoin="round"/>
<path id="Vector_3" d="M20.0207 18.0833C20.0207 20.5801 17.9966 22.6042 15.4998 22.6042C13.003 22.6042 10.979 20.5801 10.979 18.0833C10.979 15.5865 13.003 13.5625 15.4998 13.5625C17.9966 13.5625 20.0207 15.5865 20.0207 18.0833Z" stroke="black" stroke-width="1.5"/>
<path id="Vector_4" d="M15.4995 7.75H15.5111" stroke="black" stroke-width="2" stroke-linecap="round" stroke-linejoin="round"/>
</g>
</svg>
