<svg width="16" height="16" viewBox="0 0 16 16" fill="none" xmlns="http://www.w3.org/2000/svg">
<g id="Frame">
<path id="Vector" d="M1.66699 7.99935C1.66699 5.01379 1.66699 3.52101 2.59449 2.59351C3.52199 1.66602 5.01477 1.66602 8.00033 1.66602C10.9859 1.66602 12.4787 1.66602 13.4062 2.59351C14.3337 3.52101 14.3337 5.01379 14.3337 7.99935C14.3337 10.9849 14.3337 12.4777 13.4062 13.4052C12.4787 14.3327 10.9859 14.3327 8.00033 14.3327C5.01477 14.3327 3.52199 14.3327 2.59449 13.4052C1.66699 12.4777 1.66699 10.9849 1.66699 7.99935Z" stroke="#6B7B8A" stroke-width="1.2" stroke-linejoin="round"/>
<path id="Vector_2" d="M8.00488 7.00547C7.45262 7.00547 7.00488 7.4532 7.00488 8.00547C7.00488 8.55774 7.45262 9.00547 8.00488 9.00547C8.55715 9.00547 9.00488 8.55774 9.00488 8.00547C9.00488 7.4532 8.55715 7.00547 8.00488 7.00547ZM8.00488 7.00547V4.66602M10.0095 10.0132L8.71042 8.71414" stroke="#6B7B8A" stroke-width="1.2" stroke-linecap="round" stroke-linejoin="round"/>
</g>
</svg>
