<svg width="64" height="65" viewBox="0 0 64 65" fill="none" xmlns="http://www.w3.org/2000/svg">
<g id="Logo">
<rect y="0.666992" width="64" height="64" rx="32" fill="#3E7CB9"/>
<path id="Vector" d="M43.0603 30.8673C42.5686 31.3617 42.1922 31.9583 41.9576 32.6146C41.7231 33.271 41.6363 33.971 41.7034 34.6647L41.68 34.6414C41.749 35.458 41.6388 36.2797 41.3571 37.0495C41.0755 37.819 40.6292 38.518 40.0495 39.0975C39.4696 39.6769 38.7702 40.123 38 40.4044C37.23 40.6858 36.4076 40.796 35.5906 40.7271L35.614 40.7504C34.6366 40.6595 33.655 40.872 32.8028 41.3591C31.9507 41.8462 31.2697 42.584 30.8526 43.4721C30.4355 44.3602 30.3026 45.3551 30.472 46.3215C30.6415 47.2878 31.1051 48.1783 31.7995 48.8717C32.4939 49.5651 33.3854 50.0275 34.3524 50.1959C35.3195 50.3645 36.3149 50.2307 37.2031 49.8131C38.0914 49.3953 38.829 48.7142 39.3156 47.8621C39.8022 47.0101 40.0141 46.0289 39.9222 45.0521L39.9469 45.0755C39.8778 44.2589 39.988 43.4371 40.2696 42.6674C40.5513 41.8978 40.9977 41.1989 41.5774 40.6193C42.1573 40.0399 42.8566 39.5938 43.6267 39.3125C44.3969 39.031 45.2191 38.9208 46.0362 38.9898L46.0116 38.9664C46.8099 39.0381 47.6136 38.9073 48.348 38.586C49.0822 38.2648 49.7236 37.7634 50.2124 37.1285C50.7012 36.4937 51.0219 35.7456 51.1444 34.9539C51.267 34.1622 51.1876 33.3524 50.9136 32.5994C50.6396 31.8465 50.1799 31.175 49.577 30.6469C48.9742 30.1188 48.2477 29.7514 47.4649 29.5787C46.6822 29.406 45.8684 29.4335 45.0991 29.6587C44.3298 29.8841 43.6299 30.2997 43.0642 30.8673H43.0603Z" fill="#F9F9F9"/>
<path id="Vector_2" d="M31.5982 37.4093L31.5736 37.386C32.2664 37.4558 32.966 37.3708 33.622 37.137C34.2779 36.9033 34.8737 36.5268 35.3662 36.0345C35.8587 35.5423 36.2358 34.9467 36.4699 34.2908C36.7041 33.635 36.7897 32.9355 36.7204 32.2425L36.745 32.2658C36.6762 31.4505 36.7862 30.6302 37.067 29.8617C37.348 29.0934 37.7933 28.3957 38.3716 27.8171C38.9501 27.2387 39.6478 26.7933 40.416 26.5125C41.1843 26.2314 42.0045 26.1215 42.8197 26.1903L42.7951 26.167C43.7703 26.2587 44.7498 26.0471 45.6003 25.5614C46.451 25.0757 47.1309 24.3394 47.5476 23.453C47.9643 22.5666 48.0975 21.5732 47.929 20.6083C47.7605 19.6433 47.2985 18.7539 46.6059 18.0613C45.9134 17.3687 45.024 16.9066 44.0593 16.738C43.0945 16.5695 42.1012 16.7026 41.2149 17.1194C40.3285 17.5362 39.5924 18.2163 39.1067 19.0669C38.621 19.9176 38.4095 20.8973 38.5012 21.8725L38.4779 21.8479C38.5469 22.6632 38.4371 23.4837 38.1563 24.2522C37.8754 25.0206 37.4301 25.7185 36.8518 26.2971C36.2733 26.8755 35.5755 27.3209 34.8072 27.6018C34.0387 27.8826 33.2183 27.9924 32.4032 27.9234L32.4265 27.948C31.7337 27.8782 31.034 27.9633 30.3781 28.197C29.7222 28.4306 29.1264 28.8073 28.6338 29.2995C28.1413 29.7917 27.7643 30.3874 27.5301 31.0432C27.2959 31.699 27.2104 32.3986 27.2796 33.0915L27.2563 33.0683C27.3249 33.8834 27.2148 34.7037 26.9338 35.472C26.6528 36.2402 26.2076 36.938 25.6292 37.5164C25.0508 38.0948 24.3532 38.54 23.5851 38.8212C22.8169 39.1022 21.9967 39.2123 21.1816 39.1437L21.2049 39.167C20.2298 39.0754 19.2502 39.2869 18.3997 39.7726C17.5491 40.2584 16.8691 40.9946 16.4524 41.881C16.0357 42.7675 15.9025 43.7609 16.071 44.7258C16.2395 45.6907 16.7016 46.5801 17.3941 47.2727C18.0867 47.9654 18.976 48.4275 19.9408 48.596C20.9056 48.7645 21.8989 48.6313 22.7852 48.2146C23.6715 47.7978 24.4077 47.1178 24.8934 46.2672C25.3791 45.4164 25.5905 44.4368 25.4989 43.4615L25.5235 43.4848C25.4546 42.6695 25.5646 41.8492 25.8456 41.0808C26.1264 40.3125 26.5717 39.6147 27.1501 39.0362C27.7286 38.4577 28.4262 38.0124 29.1945 37.7315C29.9628 37.4505 30.783 37.3405 31.5982 37.4093Z" fill="#F9F9F9"/>
<path id="Vector_3" d="M22.5356 34.4666C23.0273 33.9723 23.4038 33.3756 23.6382 32.7191C23.8726 32.0626 23.9591 31.3624 23.8914 30.6687L23.9161 30.692C23.8471 29.8751 23.9573 29.0529 24.2391 28.283C24.5209 27.513 24.9676 26.8139 25.5478 26.2343C26.1281 25.6547 26.8278 25.2086 27.5984 24.9273C28.369 24.646 29.1917 24.5362 30.0091 24.6055L29.9845 24.5822C30.9618 24.6737 31.9436 24.4617 32.7959 23.9752C33.6482 23.4886 34.3295 22.7512 34.7472 21.8634C35.1647 20.9756 35.2981 19.9808 35.1292 19.0145C34.9603 18.0482 34.497 17.1575 33.803 16.4638C33.109 15.7702 32.2176 15.3074 31.2507 15.1386C30.2838 14.9697 29.2882 15.103 28.4 15.5203C27.5116 15.9376 26.7737 16.6186 26.2869 17.4703C25.7999 18.3221 25.5878 19.3032 25.6794 20.2799L25.656 20.2566C25.7251 21.0733 25.6148 21.8952 25.3331 22.6649C25.0514 23.4347 24.6051 24.1337 24.0252 24.7132C23.4452 25.2928 22.7457 25.7389 21.9755 26.0203C21.2053 26.3018 20.3828 26.412 19.5656 26.343L19.5889 26.3664C18.7904 26.2948 17.9867 26.4259 17.2524 26.7473C16.518 27.0688 15.8767 27.5703 15.388 28.2054C14.8992 28.8404 14.5787 29.5886 14.4563 30.3803C14.3338 31.1722 14.4134 31.9821 14.6875 32.7349C14.9616 33.4879 15.4215 34.1594 16.0245 34.6874C16.6274 35.2155 17.354 35.5829 18.1369 35.7556C18.9198 35.9282 19.7336 35.9006 20.503 35.6753C21.2724 35.45 21.9724 35.0343 22.5381 34.4666H22.5356Z" fill="#F9F9F9"/>
</g>
</svg>
