<svg width="14" height="14" viewBox="0 0 14 14" fill="none" xmlns="http://www.w3.org/2000/svg">
<g id="Frame" clip-path="url(#clip0_721_1737)">
<path id="Vector" d="M8.73828 4.09277C8.73828 4.09277 9.02995 4.38444 9.32161 4.96777C9.32161 4.96777 10.2481 3.50944 11.0716 3.21777" stroke="#131313" stroke-linecap="round" stroke-linejoin="round"/>
<path id="Vector_2" d="M5.82968 1.17866C4.37224 1.11696 3.24625 1.28485 3.24625 1.28485C2.53526 1.33569 1.1727 1.73429 1.17271 4.0622C1.17272 6.37031 1.15764 9.21581 1.17271 10.3502C1.17271 11.0432 1.60182 12.6598 3.08708 12.7464C4.89241 12.8518 8.14428 12.8742 9.63627 12.7464C10.0357 12.7239 11.3654 12.4104 11.5337 10.9636C11.708 9.46489 11.6733 8.42329 11.6733 8.17537" stroke="#131313" stroke-linecap="round" stroke-linejoin="round"/>
<path id="Vector_3" d="M12.8331 4.09245C12.8331 5.70328 11.526 7.00914 9.91361 7.00914C8.30122 7.00914 6.99414 5.70328 6.99414 4.09245C6.99414 2.48162 8.30122 1.17578 9.91361 1.17578C11.526 1.17578 12.8331 2.48162 12.8331 4.09245Z" stroke="#131313" stroke-linecap="round"/>
<path id="Vector_4" d="M4.07227 7.59277H6.40558" stroke="#131313" stroke-linecap="round"/>
<path id="Vector_5" d="M4.07227 9.92578H8.73891" stroke="#131313" stroke-linecap="round"/>
</g>
<defs>
<clipPath id="clip0_721_1737">
<rect width="14" height="14" fill="white"/>
</clipPath>
</defs>
</svg>
