<svg width="195" height="184" viewBox="0 0 195 184" fill="none" xmlns="http://www.w3.org/2000/svg">
<g id="empty/pana">
<g id="background-complete">
<path id="Vector" d="M106.836 145.258H62.0107V179.831H106.836V145.258Z" fill="#EBEBEB"/>
<path id="Vector_2" d="M95.608 179.589C95.5477 179.589 95.4961 171.881 95.4961 162.374C95.4961 152.866 95.5477 145.158 95.608 145.158C95.6683 145.158 95.7199 152.866 95.7199 162.374C95.7199 171.881 95.6683 179.589 95.608 179.589Z" fill="#E0E0E0"/>
<path id="Vector_3" d="M103.036 171.962H99.6016V175.848H103.036V171.962Z" fill="#FAFAFA"/>
<path id="Vector_4" d="M80.7809 145.347H75.6895V152.724H80.7809V145.347Z" fill="#E0E0E0"/>
<path id="Vector_5" d="M80.7809 172.349H75.6895V179.725H80.7809V172.349Z" fill="#E0E0E0"/>
<path id="Vector_6" d="M188.175 136.589H131.652V180.183H188.175V136.589Z" fill="#EBEBEB"/>
<path id="Vector_7" d="M174.012 179.874C173.952 179.874 173.9 170.16 173.9 158.174C173.9 146.187 173.952 136.474 174.012 136.474C174.073 136.474 174.124 146.187 174.124 158.174C174.124 170.16 174.077 179.874 174.012 179.874Z" fill="#E0E0E0"/>
<path id="Vector_8" d="M183.38 170.258H179.046V175.156H183.38V170.258Z" fill="#FAFAFA"/>
<path id="Vector_9" d="M155.315 136.701H148.894V146.002H155.315V136.701Z" fill="#E0E0E0"/>
<path id="Vector_10" d="M155.315 170.749H148.894V180.05H155.315V170.749Z" fill="#E0E0E0"/>
<path id="Vector_11" d="M25.1926 137.871C27.4822 136.691 30.1765 136.536 32.7157 136.958C34.0801 137.182 35.5003 137.591 36.43 138.615C37.3596 139.64 37.5318 141.443 36.4687 142.325C35.8317 142.85 34.9494 142.928 34.1231 142.919C32.1347 142.893 29.9311 142.545 28.343 143.741C27.4349 144.425 26.8323 145.557 25.7607 145.893C24.689 146.229 23.5055 145.596 22.946 144.641C22.4283 143.644 22.3143 142.487 22.6275 141.408C22.7542 140.661 23.0516 139.953 23.4964 139.34C23.9413 138.726 24.5218 138.223 25.1926 137.871Z" fill="#EBEBEB"/>
<path id="Vector_12" d="M19.9498 127.753C21.3486 129.75 24.0686 129.092 25.3296 127.87C26.5907 126.647 27.1243 124.883 27.6064 123.2C28.7168 119.348 29.8315 115.307 29.0094 111.386C28.8115 110.197 28.2887 109.086 27.4988 108.175C27.0989 107.728 26.589 107.393 26.0198 107.204C25.4506 107.014 24.8418 106.977 24.2537 107.095C22.8807 107.456 22.0286 108.816 21.4131 110.077C19.5985 113.847 18.6487 117.975 18.6328 122.158C18.6328 124.108 18.8523 126.148 19.9498 127.753Z" fill="#EBEBEB"/>
<path id="Vector_13" d="M16.111 130.619C17.6303 128.815 17.9187 126.19 17.243 123.93C16.5673 121.671 15.0394 119.751 13.2791 118.18C11.2088 116.339 8.79968 114.918 6.18633 113.997C5.17347 113.588 4.08402 113.403 2.99286 113.455C2.44854 113.486 1.92007 113.65 1.45348 113.932C0.986897 114.214 0.596349 114.606 0.315859 115.073C-0.433014 116.498 0.285732 118.224 1.06043 119.635C2.42467 122.119 3.98171 124.492 5.71721 126.732C7.11597 128.531 8.72992 130.309 10.8431 131.122C12.9563 131.936 15.1857 131.841 16.3133 130.365" fill="#EBEBEB"/>
<path id="Vector_14" d="M19.8558 157.889C19.9306 157.593 19.9738 157.29 19.9849 156.985C20.0495 156.322 20.127 155.491 20.226 154.506C20.3493 153.286 20.5346 152.074 20.7812 150.873C21.1046 149.405 21.5464 147.966 22.1024 146.569C22.6478 145.182 23.3852 143.878 24.2931 142.696C25.0353 141.735 25.9802 140.948 27.0605 140.393C27.7952 140.031 28.5824 139.787 29.3932 139.67C29.6984 139.658 30.0014 139.614 30.297 139.537C29.9924 139.503 29.6849 139.503 29.3803 139.537C28.5384 139.6 27.7147 139.815 26.9486 140.17C25.8078 140.708 24.8074 141.503 24.0263 142.494C23.076 143.692 22.3101 145.025 21.7538 146.449C21.1985 147.862 20.7665 149.321 20.4627 150.809C20.2285 152.025 20.0661 153.253 19.9763 154.489C19.8989 155.543 19.8687 156.395 19.8558 156.985C19.8241 157.285 19.8241 157.588 19.8558 157.889Z" fill="#E0E0E0"/>
<path id="Vector_15" d="M20.0269 155.986C20.0524 155.844 20.0611 155.699 20.0527 155.556C20.0527 155.237 20.0527 154.837 20.0527 154.35C20.0527 153.305 20.0527 151.79 20.1043 149.922C20.199 146.186 20.5347 142.175 21.1416 136.498C21.7312 131.166 22.5188 124.964 23.3538 120.931C23.5302 120.014 23.711 119.188 23.8831 118.465C24.0553 117.742 24.1801 117.113 24.3135 116.61C24.4469 116.106 24.5201 115.749 24.5976 115.439C24.6397 115.299 24.6643 115.155 24.6707 115.009C24.6059 115.134 24.5568 115.267 24.5244 115.405C24.4297 115.71 24.3135 116.089 24.1715 116.558C24.0295 117.027 23.8573 117.681 23.6765 118.4C23.4958 119.119 23.2892 119.945 23.0955 120.862C22.0616 125.632 21.2844 130.453 20.7671 135.306C20.1474 140.987 19.8676 146.16 19.8418 149.905C19.8418 151.777 19.8418 153.296 19.9064 154.342C19.9365 154.828 19.9623 155.228 19.9795 155.543C19.9774 155.692 19.9933 155.841 20.0269 155.986Z" fill="#E0E0E0"/>
<path id="Vector_16" d="M20.0532 146.01C20.086 145.59 20.086 145.169 20.0532 144.749C20.0059 143.94 19.894 142.773 19.6659 141.34C19.3844 139.665 19.0079 138.006 18.5383 136.373C17.9955 134.364 17.3006 132.399 16.4595 130.494C15.0195 126.986 12.953 123.769 10.3609 121C9.91119 120.525 9.43101 120.079 8.92344 119.666C8.70394 119.476 8.49305 119.291 8.31229 119.145L7.77861 118.762C7.44365 118.506 7.08808 118.279 6.71555 118.082C6.6553 118.164 8.2176 119.085 10.1888 121.181C12.6961 123.975 14.7077 127.177 16.1367 130.649C16.9633 132.541 17.6607 134.486 18.2241 136.472C18.6974 138.09 19.0895 139.731 19.399 141.387C19.6573 142.803 19.8294 143.97 19.8983 144.762C19.9167 145.181 19.9685 145.599 20.0532 146.01Z" fill="#E0E0E0"/>
<path id="Vector_17" d="M9.74121 162.09L10.7397 175.789H28.3382L29.3367 162.09H9.74121Z" fill="#EBEBEB"/>
<path id="Vector_18" d="M31.4335 156.693H8.04199V162.09H31.4335V156.693Z" fill="#EBEBEB"/>
<path id="Vector_19" d="M8.04199 175.264V176.757H9.14378H31.0505V175.264H8.04199Z" fill="#E0E0E0"/>
<path id="Vector_20" d="M10.2195 179.228L9.14355 176.594H30.211L28.9543 179.228H10.2195Z" fill="#E0E0E0"/>
<path id="Vector_21" d="M29.0086 166.566C28.9866 166.612 28.9591 166.655 28.9268 166.695C28.8579 166.785 28.7675 166.901 28.6642 167.043L27.6399 168.334L27.5926 168.395L27.5495 168.334L25.0318 164.853H25.1738L22.6948 168.36L22.6173 168.472L22.5312 168.369L19.5917 164.87H19.7595L19.6003 165.076L16.9706 168.369L16.8803 168.481L16.8028 168.365L14.3195 164.857H14.4658L11.41 168.334L11.3584 168.399L11.3154 168.326L10.3599 166.742C10.2566 166.57 10.1791 166.428 10.1146 166.312C10.0821 166.264 10.0561 166.212 10.0371 166.157C10.0774 166.198 10.1121 166.244 10.1404 166.294L10.4115 166.703L11.4143 168.283H11.3197L14.3324 164.762L14.4055 164.672L14.4744 164.767L16.9792 168.261H16.8157L19.4368 164.96C19.4927 164.891 19.5487 164.823 19.596 164.758L19.6821 164.65L19.7682 164.754L22.6991 168.261H22.5355L25.0404 164.771L25.1136 164.668L25.1824 164.771C26.1766 166.187 27.0202 167.388 27.6485 168.291H27.5581L28.6255 167C28.7417 166.867 28.8364 166.759 28.9096 166.669C28.94 166.632 28.9731 166.598 29.0086 166.566Z" fill="#F5F5F5"/>
<path id="Vector_22" d="M29.5822 161.999C29.5822 162.059 25.1707 162.111 19.7349 162.111C14.2992 162.111 9.8877 162.059 9.8877 161.999C9.8877 161.939 14.2949 161.892 19.7349 161.892C25.175 161.892 29.5822 161.939 29.5822 161.999Z" fill="#F5F5F5"/>
<path id="Vector_23" d="M153.001 6.69435L149.395 6.71387L149.492 24.6607L153.098 24.6412L153.001 6.69435Z" fill="#E0E0E0"/>
<path id="Vector_24" d="M127.488 6.74146L118.148 6.79199L118.202 16.6993L127.541 16.6488L127.488 6.74146Z" fill="#EBEBEB"/>
<path id="Vector_25" d="M136.785 6.69263L127.445 6.74316L127.499 16.6505L136.838 16.6L136.785 6.69263Z" fill="#F5F5F5"/>
<path id="Vector_26" d="M118.16 9.53505C124.369 9.5867 130.581 9.55801 136.795 9.44898C136.822 9.44898 136.847 9.43855 136.865 9.41998C136.884 9.40142 136.894 9.37624 136.894 9.34999C136.894 9.32373 136.884 9.29855 136.865 9.27999C136.847 9.26143 136.822 9.251 136.795 9.251C130.589 9.21657 124.366 9.251 118.16 9.3672C118.141 9.37154 118.124 9.3822 118.112 9.39745C118.099 9.4127 118.093 9.43162 118.093 9.45113C118.093 9.47063 118.099 9.48956 118.112 9.50481C118.124 9.52005 118.141 9.53072 118.16 9.53505Z" fill="#E0E0E0"/>
<path id="Vector_27" d="M129.296 16.4853L112.326 16.5771L112.37 24.6511L129.34 24.5593L129.296 16.4853Z" fill="#EBEBEB"/>
<path id="Vector_28" d="M146.185 16.3945L129.215 16.4863L129.259 24.5603L146.228 24.4684L146.185 16.3945Z" fill="#F5F5F5"/>
<path id="Vector_29" d="M112.338 18.8305C123.61 18.9553 134.92 18.8305 146.197 18.6627C146.223 18.6627 146.248 18.6523 146.267 18.6337C146.285 18.6151 146.296 18.5899 146.296 18.5637C146.296 18.5374 146.285 18.5123 146.267 18.4937C146.248 18.4751 146.223 18.4647 146.197 18.4647C134.925 18.4045 123.61 18.4088 112.338 18.6584C112.315 18.6584 112.293 18.6674 112.277 18.6836C112.261 18.6997 112.252 18.7216 112.252 18.7445C112.252 18.7673 112.261 18.7892 112.277 18.8053C112.293 18.8215 112.315 18.8305 112.338 18.8305Z" fill="#E0E0E0"/>
<path id="Vector_30" d="M171.734 24.6582H105.988V27.5504H171.734V24.6582Z" fill="#E0E0E0"/>
<path id="Vector_31" d="M119.42 26.0479H116.752V35.9166H119.42V26.0479Z" fill="#E0E0E0"/>
<path id="Vector_32" d="M159.262 26.0479H156.594V35.9166H159.262V26.0479Z" fill="#E0E0E0"/>
<path id="Vector_33" d="M156.519 1.75327e-05L152.912 0.0195312L153.046 24.7018L156.652 24.6823L156.519 1.75327e-05Z" fill="#EBEBEB"/>
<path id="Vector_34" d="M162.151 4.59663L156.548 4.62695L156.656 24.631L162.26 24.6007L162.151 4.59663Z" fill="#F5F5F5"/>
<path id="Vector_35" d="M162.116 8.45865C160.253 8.59022 158.383 8.59022 156.521 8.45865C158.383 8.33279 160.253 8.33279 162.116 8.45865Z" fill="#E0E0E0"/>
<path id="Vector_36" d="M162.116 7.64067C161.186 7.73487 160.25 7.7665 159.315 7.73536C158.38 7.76633 157.443 7.7347 156.513 7.64067C158.375 7.5091 160.245 7.5091 162.108 7.64067H162.116Z" fill="#E0E0E0"/>
<path id="Vector_37" d="M162.116 21.5983C160.253 21.7299 158.383 21.7299 156.521 21.5983C158.383 21.4724 160.253 21.4724 162.116 21.5983Z" fill="#E0E0E0"/>
<path id="Vector_38" d="M162.116 20.7588C160.253 20.8847 158.383 20.8847 156.521 20.7588C158.383 20.6273 160.253 20.6273 162.116 20.7588Z" fill="#E0E0E0"/>
<path id="Vector_39" d="M159.403 18.9258C159.352 18.9258 159.309 16.9073 159.309 14.4196C159.309 11.932 159.352 9.90918 159.403 9.90918C159.455 9.90918 159.502 11.9277 159.502 14.4196C159.502 16.9116 159.459 18.9258 159.403 18.9258Z" fill="#E0E0E0"/>
<path id="Vector_40" d="M168.278 9.5166H162.18V24.6146H168.278V9.5166Z" fill="#EBEBEB"/>
<path id="Vector_41" d="M154.66 5.26099C155.233 5.26099 155.698 4.7966 155.698 4.22376C155.698 3.65091 155.233 3.18652 154.66 3.18652C154.087 3.18652 153.623 3.65091 153.623 4.22376C153.623 4.7966 154.087 5.26099 154.66 5.26099Z" fill="#E0E0E0"/>
<path id="Vector_42" d="M154.984 7.07715H154.343V21.7619H154.984V7.07715Z" fill="#E0E0E0"/>
</g>
<g id="Floor">
<path id="Vector_43" d="M190.116 179.945C190.116 180.009 148.748 180.057 97.7339 180.057C46.7201 180.057 5.34277 180.009 5.34277 179.945C5.34277 179.88 46.7029 179.833 97.7339 179.833C148.765 179.833 190.116 179.885 190.116 179.945Z" fill="#263238"/>
</g>
<g id="Character">
<path id="Vector_44" d="M54.3512 21.9941C56.3808 24.478 57.4798 27.5923 57.4586 30.7999C57.4371 32.6161 57.1014 34.6174 58.1601 36.0936C58.9607 37.2126 60.424 37.7764 61.0739 38.9901C61.8572 40.4491 61.1901 42.2955 61.6721 43.8793C62.3521 46.1259 64.9861 47.0685 66.5484 48.8201C67.2143 49.5947 67.6803 50.5208 67.9054 51.5172C68.1305 52.5136 68.1079 53.55 67.8395 54.5357C67.5549 55.5172 67.0402 56.4167 66.338 57.1592C65.6359 57.9018 64.7666 58.4661 63.8025 58.8051C62.7731 59.2109 61.6248 59.1924 60.609 58.7535C59.5546 58.2284 58.8875 57.1481 58.371 56.0937C57.3338 54.0192 48.2225 42.8076 47.7061 40.5438" fill="#263238"/>
<path id="Vector_45" d="M47.7225 19.3523C43.9953 18.7498 40.4059 21.2245 38.8436 24.659C37.2813 28.0935 37.2296 31.9755 37.122 35.7629C37.0144 39.5503 36.739 43.4755 34.8152 46.7206C33.5929 48.7821 31.6992 50.5941 31.4022 52.9655C31.1354 55.0916 32.2372 57.2349 31.8713 59.3481C31.5528 61.1902 30.1498 62.7912 30.2057 64.6548C30.2746 66.9014 32.5858 68.5928 34.8281 68.6531C37.0704 68.7133 39.1707 67.5384 40.931 66.1439C43.7989 63.8668 46.0939 60.9499 47.6321 57.6266" fill="#263238"/>
<path id="Vector_46" d="M41.5895 28.2337C41.4724 27.2961 41.5449 26.3446 41.8026 25.4356C42.0603 24.5266 42.498 23.6786 43.0897 22.942C43.6814 22.2054 44.4151 21.5952 45.2471 21.1475C46.0792 20.6999 46.9927 20.4239 47.9334 20.3361C51.6907 19.9746 55.0348 22.7764 55.5986 26.5122C56.0936 29.7874 56.5153 33.0928 56.5024 34.2935C56.4551 37.9131 54.3505 39.3205 53.4897 39.7465C53.1801 39.8577 52.86 39.937 52.5343 39.9833V40.0091L53.3348 44.1666C53.7006 46.891 52.1813 49.3312 49.4613 49.7143C46.7413 50.0973 44.6022 48.0186 44.1848 45.2942L41.5895 28.2337Z" fill="#FFBE9D"/>
<path id="Vector_47" d="M54.8584 28.0959C54.7982 28.182 54.3204 27.928 53.7093 28.0184C53.0981 28.1088 52.6893 28.4789 52.6118 28.4144C52.5343 28.3498 52.6118 28.2422 52.8012 28.0701C53.0365 27.8408 53.3373 27.6904 53.6619 27.6397C53.9804 27.5906 54.3062 27.6449 54.5916 27.7946C54.8068 27.9323 54.8885 28.0615 54.8584 28.0959Z" fill="#263238"/>
<path id="Vector_48" d="M49.4092 29.4218C49.3489 29.5079 48.8712 29.2496 48.2558 29.34C47.6403 29.4304 47.24 29.8048 47.1626 29.7403C47.0851 29.6757 47.1626 29.5638 47.3519 29.396C47.5873 29.1667 47.8881 29.0163 48.2127 28.9656C48.5316 28.9202 48.8567 28.9759 49.1424 29.1248C49.3532 29.2582 49.4393 29.3831 49.4092 29.4218Z" fill="#263238"/>
<path id="Vector_49" d="M51.6443 32.7071C51.9521 32.559 52.2775 32.4506 52.6126 32.3843C52.7676 32.3456 52.9096 32.294 52.9225 32.1821C52.9086 32.0248 52.8487 31.8751 52.7504 31.7517L52.1091 30.6068C51.2182 29.0058 50.5511 27.6802 50.6156 27.6415C50.6802 27.6027 51.4764 28.881 52.3372 30.482C52.5567 30.878 52.7676 31.2567 52.9569 31.6139C53.082 31.789 53.1428 32.0018 53.1291 32.2165C53.1149 32.2752 53.0873 32.3299 53.0485 32.3762C53.0097 32.4224 52.9607 32.4591 52.9053 32.4833C52.8214 32.5201 52.7332 32.5461 52.6428 32.5608C52.3177 32.6529 51.9821 32.7021 51.6443 32.7071Z" fill="#263238"/>
<path id="Vector_50" d="M52.5006 39.9888C52.5006 39.9888 50.1636 40.5268 46.9443 39.1797C46.9443 39.1797 48.3345 42.1709 52.7201 41.1078L52.5006 39.9888Z" fill="#EB996E"/>
<path id="Vector_51" d="M49.0959 27.8167C49.0615 27.9931 48.4374 28.0018 47.7316 28.1954C47.0257 28.3891 46.4705 28.6646 46.3543 28.5311C46.3027 28.4666 46.3801 28.2944 46.591 28.1007C46.875 27.8579 47.2105 27.6828 47.5722 27.5889C47.9338 27.4949 48.3121 27.4845 48.6784 27.5585C48.9625 27.623 49.0959 27.7349 49.0959 27.8167Z" fill="#263238"/>
<path id="Vector_52" d="M54.3552 26.741C54.2692 26.896 53.8259 26.8142 53.318 26.8787C52.8101 26.9433 52.3927 27.1111 52.2722 26.9777C52.2205 26.9132 52.2722 26.7668 52.4357 26.6076C52.6614 26.4075 52.9446 26.284 53.2448 26.2547C53.5413 26.219 53.8416 26.2745 54.1056 26.4139C54.3122 26.5301 54.394 26.6635 54.3552 26.741Z" fill="#263238"/>
<path id="Vector_53" d="M48.0799 30.2146C48.0893 30.2812 48.1119 30.3452 48.1463 30.403C48.1808 30.4608 48.2263 30.5112 48.2804 30.5512C48.3344 30.5913 48.3959 30.6202 48.4612 30.6363C48.5266 30.6524 48.5944 30.6553 48.6609 30.6449C48.7255 30.6375 48.788 30.6173 48.8448 30.5855C48.9015 30.5536 48.9513 30.5109 48.9914 30.4596C49.0315 30.4083 49.0609 30.3496 49.0781 30.2869C49.0952 30.2241 49.0997 30.1586 49.0913 30.0941C49.0711 29.96 48.9986 29.8395 48.8897 29.7588C48.7808 29.6781 48.6443 29.6439 48.5103 29.6637C48.4454 29.6705 48.3826 29.6904 48.3256 29.722C48.2685 29.7537 48.2184 29.7965 48.1783 29.8479C48.1381 29.8993 48.1087 29.9582 48.0918 30.0212C48.0749 30.0842 48.0708 30.15 48.0799 30.2146Z" fill="#263238"/>
<path id="Vector_54" d="M53.5076 29.0398C53.5278 29.1738 53.6003 29.2943 53.7092 29.375C53.8181 29.4557 53.9545 29.4899 54.0886 29.4701C54.1533 29.4627 54.2158 29.4425 54.2725 29.4107C54.3292 29.3788 54.3791 29.336 54.4191 29.2848C54.4592 29.2335 54.4886 29.1748 54.5058 29.112C54.5229 29.0493 54.5274 28.9838 54.519 28.9192C54.4988 28.7852 54.4263 28.6647 54.3174 28.584C54.2085 28.5033 54.0721 28.4691 53.938 28.4889C53.8731 28.4957 53.8103 28.5156 53.7533 28.5472C53.6963 28.5789 53.6462 28.6217 53.606 28.6731C53.5659 28.7245 53.5365 28.7834 53.5196 28.8464C53.5026 28.9094 53.4986 28.9752 53.5076 29.0398Z" fill="#263238"/>
<path id="Vector_55" d="M52.6074 33.8936C52.4385 33.841 52.2564 33.8492 52.0929 33.9168C51.9294 33.9845 51.7947 34.1072 51.7122 34.2637C51.6334 34.4075 51.6014 34.5722 51.6207 34.735C51.64 34.8978 51.7096 35.0505 51.8198 35.1718C51.9371 35.2871 52.0915 35.3568 52.2555 35.3686C52.4195 35.3805 52.5824 35.3336 52.715 35.2364C52.881 35.0852 52.9814 34.8752 52.9948 34.6511C53.024 34.4456 52.9748 34.2366 52.857 34.0657C52.7966 33.9822 52.7103 33.9209 52.6115 33.8913C52.5126 33.8618 52.4069 33.8656 52.3104 33.9022" fill="#EB996E"/>
<path id="Vector_56" d="M55.1209 23.5648C54.7831 22.2012 53.9401 21.0167 52.7624 20.2508C51.7984 19.5545 50.6534 19.1524 49.4657 19.0931C48.2706 19.0416 47.1038 19.4656 46.2205 20.2723C45.5938 20.8935 45.2354 21.7356 45.222 22.6179L45.2909 22.0154C45.1101 22.5057 45.1101 23.0444 45.2909 23.5346C45.3899 23.7972 45.5104 24.064 45.6137 24.3266C45.9218 25.0852 46.4934 25.7072 47.2233 26.0782C47.5539 26.2556 47.9242 26.3459 48.2993 26.3408C48.4871 26.337 48.6718 26.2923 48.8405 26.2098C49.0093 26.1273 49.158 26.0089 49.2763 25.863C49.5435 25.3965 49.6264 24.8469 49.5087 24.3223C49.7911 24.8407 50.1941 25.2835 50.6837 25.6134C50.9336 25.7732 51.2309 25.842 51.5256 25.8082C51.8204 25.7745 52.0945 25.6404 52.3019 25.4284C52.6548 24.998 52.5171 24.318 52.3019 23.7843C52.6349 24.2877 53.1013 24.6885 53.649 24.942C53.7931 25.0247 53.9529 25.0766 54.1181 25.0944C54.2833 25.1121 54.4504 25.0954 54.6088 25.0453C54.7354 24.9825 54.8462 24.8918 54.9327 24.7799C55.0191 24.6681 55.0791 24.5381 55.108 24.3997C55.1719 24.1255 55.1763 23.8408 55.1209 23.5648Z" fill="#263238"/>
<path id="Vector_57" d="M52.0101 24.7093C51.9714 24.7093 51.98 24.1971 51.8122 23.4181C51.6185 22.3829 51.0981 21.4371 50.3273 20.7196C49.9037 20.3343 49.3926 20.0581 48.8382 19.9147C48.3841 19.8033 47.9113 19.7916 47.4523 19.8803C47.0293 19.9792 46.6251 20.1464 46.2559 20.3753C46.2559 20.3753 46.329 20.2677 46.5184 20.1299C46.7902 19.9398 47.0953 19.8026 47.4179 19.7254C47.9006 19.6124 48.4028 19.6124 48.8855 19.7254C49.4803 19.8738 50.028 20.1699 50.478 20.5861C51.285 21.3333 51.812 22.3342 51.9714 23.4224C52.0226 23.7441 52.0485 24.0693 52.0489 24.3951C52.0542 24.5012 52.0411 24.6075 52.0101 24.7093Z" fill="#455A64"/>
<path id="Vector_58" d="M91.6491 74.8896L75.1007 68.3262C75.1007 68.3262 66.6264 57.2093 66.8028 56.9941L60.8506 63.5102L69.5014 75.2124L89.5531 79.9122L92.9962 78.9568C92.2387 75.3028 91.6491 74.8896 91.6491 74.8896Z" fill="#FFBE9D"/>
<path id="Vector_59" d="M55.5828 43.1733L53.3276 42.3125L43.5923 43.5477V45.2693L43.3125 45.3037C41.2139 45.7499 39.2011 46.5317 37.3516 47.6192C35.6192 48.6767 34.2427 50.2283 33.3991 52.0743C32.5554 53.9204 32.2832 55.9766 32.6174 57.9786C33.0133 60.4404 33.7794 63.4316 35.26 65.1617C38.0876 68.4714 40.6699 64.3827 40.6699 64.3827C40.6699 64.3827 42.4431 68.4284 42.3398 70.3436C42.2538 71.9489 41.5479 75.2887 41.3198 76.3303C41.3104 76.3719 41.3097 76.415 41.3175 76.4569C41.3253 76.4989 41.3416 76.5388 41.3654 76.5742C41.3891 76.6097 41.4199 76.6399 41.4557 76.6631C41.4915 76.6862 41.5317 76.7019 41.5737 76.709L62.1118 80.5093L62.2108 75.4867L61.5566 54.8281L60.6313 46.8057C60.6313 46.8057 60.6614 42.9753 55.5828 43.1733Z" fill="#0A66C2"/>
<path id="Vector_60" d="M60.3164 45.4717L68.1494 56.7865L61.8443 64.4646L60.3164 45.4717Z" fill="#0A66C2"/>
<path id="Vector_61" d="M62.0083 69.2808C61.9801 69.038 61.9701 68.7934 61.9781 68.5491C61.9781 68.0413 61.9781 67.3742 61.9523 66.5607C61.9142 64.3775 61.7576 62.198 61.4832 60.0318C61.1604 57.4925 60.6655 55.2244 60.291 53.576L59.8348 51.6392C59.7687 51.405 59.7198 51.1662 59.6885 50.9248C59.7864 51.1484 59.8641 51.3803 59.9209 51.6177C60.0543 52.0481 60.2351 52.7238 60.4417 53.5415C60.9974 55.6651 61.42 57.8212 61.707 59.9974C61.9837 62.1727 62.1188 64.3636 62.1116 66.5564C62.1116 67.4172 62.09 68.08 62.0642 68.5491C62.0664 68.7942 62.0477 69.0389 62.0083 69.2808Z" fill="#263238"/>
<path id="Vector_62" d="M42.7261 52.0775C42.7261 52.1119 42.1321 52.1076 41.181 52.1549C39.9399 52.2222 38.7056 52.3819 37.4883 52.6327C36.2712 52.8881 35.0745 53.2319 33.9074 53.6613C33.0122 53.9927 32.4742 54.238 32.457 54.2036C32.5674 54.1171 32.689 54.0462 32.8186 53.9927C33.0553 53.8636 33.4082 53.7 33.8515 53.515C36.1739 52.5559 38.6558 52.042 41.1681 52C41.6501 52 42.0288 52 42.3086 52.0258C42.4496 52.0213 42.5904 52.0387 42.7261 52.0775Z" fill="#FAFAFA"/>
<path id="Vector_63" d="M60.8671 57.2561C60.5523 57.3704 60.2238 57.4428 59.8901 57.4713C58.2986 57.7036 56.6862 57.7584 55.0827 57.6348C54.7478 57.629 54.415 57.5799 54.0928 57.4885C54.425 57.459 54.7591 57.459 55.0913 57.4885C55.7024 57.4885 56.5503 57.4885 57.4842 57.4885C58.4182 57.4885 59.2617 57.3938 59.8729 57.3378C60.2011 57.2805 60.5339 57.2531 60.8671 57.2561Z" fill="#FAFAFA"/>
<path id="Vector_64" d="M64.4612 52.139C63.9868 52.6872 63.4183 53.1463 62.7827 53.4947C62.1825 53.9004 61.5129 54.1922 60.8072 54.3555C60.7814 54.2953 61.668 53.9251 62.6665 53.2882C63.665 52.6512 64.4181 52.0874 64.4612 52.139Z" fill="#FAFAFA"/>
<path id="Vector_65" d="M61.2984 46.8908C59.9405 48.1123 58.2104 48.8401 56.3877 48.9567C56.3877 48.8878 57.5713 48.707 58.9313 48.126C60.2913 47.545 61.2554 46.8349 61.2984 46.8908Z" fill="#FAFAFA"/>
<path id="Vector_66" d="M61.7226 66.0189C61.596 66.104 61.4603 66.1747 61.318 66.2297C61.0469 66.3589 60.6552 66.5181 60.156 66.7032C58.8589 67.1693 57.52 67.5094 56.1577 67.7189C54.7955 67.9292 53.416 68.0056 52.0389 67.947C51.5095 67.9255 51.0834 67.8867 50.7908 67.848C50.6375 67.8378 50.4859 67.8104 50.3389 67.7662C50.3389 67.7275 50.9931 67.7662 52.0604 67.792C54.7968 67.8176 57.5192 67.399 60.1216 66.5525C61.1028 66.2297 61.7097 65.9844 61.7226 66.0189Z" fill="#FAFAFA"/>
<path id="Vector_67" d="M61.8836 71.8506C61.8836 71.8506 61.8233 71.8936 61.6985 71.9582L61.1476 72.1992C60.6742 72.423 59.9727 72.7157 59.0947 73.06C58.2167 73.4043 57.1536 73.7357 55.9572 74.0628C53.356 74.7632 50.6861 75.1774 47.995 75.298C46.7555 75.3453 45.6408 75.341 44.7026 75.298C43.7643 75.2549 43.0111 75.1861 42.4904 75.1129L41.8921 75.0311C41.8217 75.026 41.7522 75.0116 41.6855 74.9881C41.7554 74.977 41.8266 74.977 41.8964 74.9881L42.499 75.0268C43.0197 75.0699 43.7901 75.1129 44.7069 75.1387C45.6236 75.1646 46.7555 75.1387 47.9864 75.0957C49.2173 75.0527 50.5687 74.8977 51.9761 74.6653C53.3835 74.4329 54.7091 74.1532 55.9055 73.8519C57.102 73.5506 58.1608 73.2106 59.0387 72.8964C59.9167 72.5822 60.6312 72.3197 61.1132 72.1217L61.6727 71.9022C61.741 71.8777 61.8117 71.8604 61.8836 71.8506Z" fill="#FAFAFA"/>
<path id="Vector_68" d="M24.1334 163.346L21.805 173.86L17.5571 181.646C17.4848 181.779 17.4406 181.925 17.4272 182.076C17.4138 182.226 17.4314 182.378 17.479 182.522C17.5266 182.665 17.6032 182.798 17.704 182.911C17.8047 183.023 17.9276 183.114 18.0649 183.178C18.2244 183.251 18.399 183.285 18.5742 183.277C18.7495 183.269 18.9202 183.218 19.072 183.131C21.0432 181.994 28.278 177.764 28.4028 176.985C28.5535 176.085 31.5963 166.057 31.5963 166.057L24.1334 163.346Z" fill="#0A66C2"/>
<g id="Group" opacity="0.6">
<path id="Vector_69" d="M18.0654 183.177L28.5798 176.291L28.4679 176.721C28.3759 177.105 28.15 177.444 27.8309 177.677C26.9701 178.292 24.5729 179.945 19.107 183.138C18.95 183.23 18.7728 183.282 18.5911 183.289C18.4093 183.296 18.2287 183.257 18.0654 183.177Z" fill="white"/>
</g>
<g id="Group_2" opacity="0.6">
<path id="Vector_70" d="M27.2571 172.38C27.1052 172.443 26.9821 172.561 26.9114 172.709C26.8407 172.858 26.8274 173.027 26.874 173.185C26.9315 173.338 27.0456 173.464 27.1929 173.536C27.3402 173.608 27.5095 173.621 27.666 173.572C27.8285 173.505 27.9601 173.379 28.035 173.22C28.1098 173.061 28.1225 172.88 28.0705 172.711C27.9943 172.559 27.8627 172.442 27.7026 172.383C27.5425 172.325 27.3662 172.33 27.2097 172.397" fill="white"/>
</g>
<path id="Vector_71" d="M21.5778 179.192C21.4042 178.805 21.1605 178.454 20.8591 178.155C20.5119 177.913 20.122 177.74 19.71 177.643C19.71 177.613 19.8606 177.566 20.1145 177.591C20.445 177.634 20.7559 177.772 21.0097 177.987C21.2655 178.195 21.4542 178.473 21.552 178.788C21.6252 179.033 21.6037 179.192 21.5778 179.192Z" fill="#263238"/>
<path id="Vector_72" d="M20.4883 180.411C20.428 180.445 20.1741 180.024 19.6706 179.735C19.3493 179.586 19.0187 179.458 18.6807 179.352C18.8665 179.291 19.0641 179.276 19.2572 179.306C19.4503 179.337 19.6333 179.413 19.7911 179.529C20.3635 179.86 20.5485 180.398 20.4883 180.411Z" fill="#263238"/>
<path id="Vector_73" d="M23.4012 177.738C23.0352 177.332 22.638 176.955 22.2133 176.61C21.7454 176.325 21.2562 176.076 20.75 175.866C21.3321 175.854 21.8995 176.049 22.351 176.417C22.8489 176.716 23.2218 177.185 23.4012 177.738Z" fill="#263238"/>
<path id="Vector_74" d="M24.3786 174.6C24.3355 174.656 23.8148 174.273 23.0874 174.062C22.3601 173.851 21.7016 173.885 21.6973 173.812C22.1763 173.688 22.6799 173.696 23.155 173.835C23.63 173.973 24.0587 174.238 24.3958 174.6H24.3786Z" fill="#263238"/>
<path id="Vector_75" d="M25.1413 171.532C24.7215 171.272 24.2683 171.071 23.7942 170.934C23.3058 170.867 22.8107 170.867 22.3223 170.934C22.3223 170.908 22.4557 170.805 22.7311 170.723C23.0932 170.624 23.4733 170.612 23.8409 170.687C24.2086 170.762 24.5537 170.921 24.8486 171.153C25.0681 171.36 25.1585 171.515 25.1413 171.532Z" fill="#263238"/>
<path id="Vector_76" d="M23.9536 170.353C23.9539 170.216 23.9832 170.081 24.0396 169.957C24.1616 169.602 24.3549 169.275 24.6078 168.997C24.7732 168.777 25.0059 168.617 25.2706 168.541C25.3607 168.526 25.4531 168.539 25.536 168.577C25.6189 168.615 25.6883 168.678 25.7354 168.756C25.8145 168.916 25.8313 169.1 25.7827 169.273C25.6724 169.618 25.4454 169.914 25.1408 170.11C24.8362 170.306 24.4728 170.391 24.1128 170.349C23.7579 170.298 23.4258 170.143 23.1585 169.904C22.8912 169.666 22.7006 169.353 22.6108 169.006C22.5901 168.918 22.5882 168.826 22.6053 168.737C22.6223 168.648 22.6579 168.564 22.7098 168.489C22.7692 168.42 22.8492 168.371 22.9382 168.35C23.0272 168.329 23.1205 168.337 23.2047 168.373C23.448 168.494 23.6556 168.677 23.8072 168.902C24.0353 169.201 24.2087 169.538 24.3194 169.897C24.3718 170.025 24.3968 170.163 24.3926 170.301C24.2191 169.837 23.9768 169.402 23.6738 169.01C23.5328 168.826 23.3498 168.679 23.1401 168.58C23.094 168.56 23.0427 168.555 22.9938 168.567C22.9449 168.578 22.9011 168.606 22.869 168.644C22.8389 168.695 22.8196 168.751 22.8122 168.81C22.8048 168.868 22.8095 168.928 22.826 168.984C22.9157 169.276 23.0862 169.537 23.3176 169.737C23.5491 169.936 23.8322 170.066 24.1343 170.112C24.4388 170.147 24.7462 170.078 25.0064 169.917C25.2667 169.755 25.4645 169.51 25.5675 169.221C25.6092 169.104 25.6092 168.976 25.5675 168.859C25.5431 168.815 25.5055 168.78 25.4599 168.758C25.4144 168.737 25.3632 168.73 25.3136 168.739C25.0893 168.801 24.8894 168.93 24.7412 169.109C24.411 169.477 24.1448 169.897 23.9536 170.353Z" fill="#263238"/>
<g id="Group_3" opacity="0.3">
<path id="Vector_77" d="M23.8493 164.487L23.3457 166.897L30.9592 168.163L31.5962 166.058L24.1204 163.347L23.8493 164.487Z" fill="black"/>
</g>
<path id="Vector_78" d="M58.1339 167.236L57.5056 175.638C57.5056 175.638 65.8378 179.081 65.8723 180.665L49.5176 180.032L49.948 166.896L58.1339 167.236Z" fill="#0A66C2"/>
<g id="Group_4" opacity="0.6">
<path id="Vector_79" d="M52.4907 174.733C52.332 174.775 52.1944 174.874 52.1039 175.012C52.0135 175.149 51.9766 175.314 52.0001 175.477C52.0363 175.637 52.1321 175.777 52.268 175.869C52.4039 175.961 52.5697 175.998 52.7317 175.972C52.9005 175.927 53.0467 175.822 53.1421 175.675C53.2375 175.529 53.2753 175.353 53.2482 175.18C53.1938 175.017 53.0783 174.881 52.9259 174.8C52.7735 174.72 52.596 174.702 52.4305 174.75" fill="white"/>
</g>
<g id="Group_5" opacity="0.6">
<path id="Vector_80" d="M49.5273 180.033L49.622 178.707L65.2666 179.796C65.2666 179.796 65.9853 180.14 65.882 180.657L49.5273 180.033Z" fill="white"/>
</g>
<path id="Vector_81" d="M57.7811 175.565C57.7811 175.647 57.3766 175.668 56.9763 175.909C56.5761 176.15 56.3523 176.477 56.2791 176.443C56.2059 176.408 56.3437 175.952 56.8343 175.668C57.3249 175.384 57.8027 175.492 57.7811 175.565Z" fill="#263238"/>
<path id="Vector_82" d="M59.4672 176.352C59.4672 176.434 59.1315 176.554 58.8475 176.881C58.5634 177.208 58.473 177.561 58.3912 177.557C58.3095 177.553 58.2793 177.096 58.6409 176.696C59.0024 176.296 59.4672 176.266 59.4672 176.352Z" fill="#263238"/>
<path id="Vector_83" d="M60.3638 178.431C60.2906 178.431 60.196 178.039 60.4154 177.613C60.6349 177.187 61.018 177.023 61.0481 177.092C61.0782 177.161 60.8415 177.385 60.6651 177.738C60.4886 178.091 60.4413 178.427 60.3638 178.431Z" fill="#263238"/>
<path id="Vector_84" d="M57.704 173.636C57.6696 173.705 57.308 173.58 56.8432 173.593C56.3784 173.606 56.0341 173.735 55.9824 173.666C55.9308 173.597 56.2923 173.326 56.8432 173.318C57.3941 173.309 57.7556 173.576 57.704 173.636Z" fill="#263238"/>
<g id="Group_6" opacity="0.3">
<path id="Vector_85" d="M58.0185 168.902L57.9066 170.4L49.8799 170.012L49.9358 168.282L58.0185 168.902Z" fill="black"/>
</g>
<path id="Vector_86" d="M57.8107 171.937C57.5402 172.002 57.2569 171.991 56.9929 171.903C56.6945 171.841 56.4053 171.741 56.1322 171.606C55.9728 171.527 55.819 171.438 55.6716 171.339C55.5818 171.284 55.5006 171.216 55.4306 171.137C55.3832 171.075 55.3574 170.999 55.3574 170.921C55.3574 170.844 55.3832 170.768 55.4306 170.706C55.4725 170.652 55.5267 170.608 55.5889 170.579C55.651 170.55 55.7192 170.536 55.7878 170.538C55.8915 170.543 55.9942 170.56 56.0934 170.59C56.2656 170.64 56.4328 170.707 56.5927 170.788C56.8644 170.921 57.113 171.097 57.3286 171.309C57.6945 171.675 57.8107 171.98 57.7848 171.993C57.759 172.006 57.5739 171.761 57.1995 171.455C56.9797 171.283 56.7398 171.139 56.4851 171.025C56.3332 170.962 56.178 170.907 56.0202 170.861C55.8481 170.81 55.7018 170.805 55.6544 170.861C55.6071 170.917 55.6544 170.904 55.6544 170.956C55.706 171.013 55.7654 171.062 55.8309 171.102C55.9689 171.198 56.1127 171.286 56.2613 171.365C56.5094 171.502 56.7703 171.614 57.0403 171.7C57.3024 171.761 57.5598 171.84 57.8107 171.937Z" fill="#263238"/>
<path id="Vector_87" d="M57.7031 172.048C57.5601 171.807 57.4955 171.527 57.5181 171.248C57.5198 170.945 57.5692 170.644 57.6644 170.357C57.7262 170.188 57.8025 170.026 57.8925 169.871C57.9409 169.764 58.0157 169.672 58.1099 169.602C58.2041 169.533 58.3145 169.489 58.4305 169.475C58.504 169.479 58.5746 169.505 58.6341 169.548C58.6935 169.592 58.7394 169.651 58.7662 169.72C58.8036 169.817 58.8268 169.918 58.8351 170.021C58.8633 170.204 58.8633 170.39 58.8351 170.572C58.7775 170.876 58.646 171.162 58.452 171.403C58.1163 171.833 57.7806 171.898 57.772 171.872C57.7634 171.846 58.0302 171.687 58.2928 171.287C58.4434 171.058 58.5419 170.8 58.5811 170.529C58.6029 170.372 58.6029 170.213 58.5811 170.056C58.5596 169.883 58.4994 169.737 58.4348 169.754C58.3702 169.772 58.211 169.875 58.1378 170.013C58.0538 170.15 57.9804 170.294 57.9183 170.443C57.8187 170.703 57.755 170.975 57.729 171.252C57.673 171.734 57.7462 172.048 57.7031 172.048Z" fill="#263238"/>
<path id="Vector_88" d="M41.229 76.6306C41.229 76.6306 38.6466 76.7468 36.9251 85.5783C35.2035 94.4098 22.0811 165.97 22.0811 165.97L31.5969 166.056L49.5268 98.0208L48.3346 168.174L58.0011 168.914C58.0011 168.914 65.2531 91.3197 65.3177 86.8049C65.4038 81.1755 62.1716 75.4814 62.1716 75.4814L41.229 76.6306Z" fill="#263238"/>
<path id="Vector_89" d="M54.3084 75.8789C54.3686 75.8789 53.3787 80.936 52.1005 87.1465C50.8223 93.3569 49.7377 98.3838 49.6774 98.3709C49.6172 98.358 50.6028 93.3139 51.881 87.1034C53.1593 80.8929 54.261 75.866 54.3084 75.8789Z" fill="#455A64"/>
<path id="Vector_90" d="M55.7891 77.1383C55.7891 77.1124 56.0473 77.035 56.3443 77.2975C56.4286 77.374 56.4954 77.4678 56.54 77.5726C56.5845 77.6774 56.6059 77.7906 56.6025 77.9044C56.5917 78.0483 56.5403 78.1862 56.4542 78.302C56.3681 78.4178 56.2509 78.5068 56.1162 78.5585C55.9847 78.6182 55.8392 78.6397 55.6962 78.6207C55.5531 78.6017 55.4183 78.5429 55.307 78.451C55.2238 78.3729 55.1581 78.2781 55.1143 78.1727C55.0706 78.0673 55.0497 77.9539 55.0531 77.8398C55.0531 77.4438 55.3199 77.3061 55.3242 77.3319C55.2517 77.49 55.2135 77.6616 55.2123 77.8355C55.2181 77.9229 55.2413 78.0083 55.2804 78.0866C55.3196 78.1649 55.374 78.2347 55.4404 78.2917C55.5254 78.3502 55.6236 78.3865 55.7262 78.3971C55.8288 78.4078 55.9324 78.3925 56.0275 78.3526C56.1227 78.3128 56.2062 78.2497 56.2706 78.1691C56.335 78.0885 56.3781 77.993 56.3959 77.8914C56.4022 77.8042 56.391 77.7167 56.3629 77.6339C56.3348 77.5511 56.2904 77.4748 56.2324 77.4094C56.0215 77.1641 55.7848 77.1727 55.7891 77.1383Z" fill="#455A64"/>
<path id="Vector_91" d="M55.3782 80.6332C55.3782 80.6074 55.6451 80.6332 55.8086 80.9904C55.8502 81.0924 55.8691 81.2022 55.8639 81.3122C55.8587 81.4222 55.8295 81.5298 55.7785 81.6274C55.7045 81.7434 55.6003 81.8371 55.477 81.8983C55.3538 81.9596 55.2162 81.9861 55.079 81.975C54.9419 81.9639 54.8103 81.9157 54.6985 81.8355C54.5866 81.7553 54.4988 81.6462 54.4443 81.5198C54.4099 81.4161 54.3986 81.3061 54.4113 81.1975C54.4239 81.089 54.4602 80.9845 54.5175 80.8914C54.7197 80.5686 54.9952 80.5773 54.9866 80.6031C54.978 80.6289 54.78 80.6891 54.6552 80.9646C54.592 81.1191 54.592 81.2922 54.6552 81.4466C54.7001 81.532 54.7659 81.6047 54.8465 81.6578C54.927 81.711 55.0197 81.7429 55.1159 81.7507C55.2121 81.7584 55.3087 81.7417 55.3967 81.7021C55.4847 81.6624 55.5613 81.6012 55.6193 81.5241C55.7003 81.377 55.7204 81.2039 55.6752 81.0421C55.5504 80.7494 55.3567 80.6633 55.3782 80.6332Z" fill="#455A64"/>
<path id="Vector_92" d="M46.2596 77.2248C46.2419 77.3727 46.2043 77.5174 46.1477 77.6552C46.0132 78.0493 45.8448 78.4309 45.6441 78.7957C44.9875 80.0132 44.039 81.0488 42.8838 81.8097C41.7286 82.5706 40.4026 83.033 39.0248 83.1555C38.611 83.1916 38.1948 83.1916 37.781 83.1555C37.6352 83.1509 37.4906 83.1278 37.3506 83.0867C37.3506 83.0436 38.0005 83.1168 39.0291 82.9877C40.3697 82.825 41.6543 82.3536 42.782 81.6106C43.9096 80.8675 44.8496 79.873 45.5279 78.7053C46.0315 77.836 46.2209 77.2119 46.2596 77.2248Z" fill="#455A64"/>
<path id="Vector_93" d="M64.7751 83.5054C64.7751 83.5054 64.6632 83.4537 64.4867 83.3332C64.2402 83.1559 64.0097 82.9571 63.7981 82.7393C63.0903 82.0228 62.538 81.1679 62.1759 80.2281C61.8137 79.2883 61.6495 78.2839 61.6935 77.2777C61.7034 76.9748 61.7423 76.6736 61.8097 76.3782C61.857 76.1673 61.8872 76.0554 61.9044 76.0597C61.9216 76.064 61.8527 76.5288 61.8527 77.282C61.8535 79.259 62.5881 81.1654 63.9143 82.6317C64.4179 83.1869 64.7966 83.471 64.7751 83.5054Z" fill="#455A64"/>
<path id="Vector_94" d="M98.1607 83.7546C98.3028 83.4103 98.264 83.548 95.983 82.033C95.983 82.033 99.2539 84.185 98.9139 83.1606C98.6198 82.7726 98.26 82.4391 97.8509 82.1751C98.7116 82.6829 99.2109 82.7389 99.3615 82.5323C99.6197 82.1751 97.7476 80.8107 96.8567 80.1953C97.6711 80.778 98.5254 81.3029 99.4132 81.7662C99.9425 81.9297 99.6886 81.31 99.3314 80.8581C98.9742 80.4062 96.2025 77.7378 95.4579 76.9416C95.387 76.881 95.3301 76.8057 95.2911 76.721C95.2521 76.6363 95.2319 76.5442 95.2319 76.4509C95.2319 76.3577 95.2521 76.2655 95.2911 76.1808C95.3301 76.0961 95.387 76.0209 95.4579 75.9603C96.7921 75.0995 97.3774 73.7266 97.3602 73.2747C97.3454 73.1729 97.2987 73.0785 97.2269 73.0049C97.155 72.9314 97.0617 72.8825 96.9604 72.8653C96.859 72.848 96.7548 72.8634 96.6627 72.9091C96.5706 72.9548 96.4954 73.0286 96.4478 73.1197C96.111 73.5383 95.7186 73.909 95.2815 74.2215C94.9425 74.4859 94.5612 74.6911 94.1538 74.8284C93.6804 74.9833 91.352 74.8542 90.8528 74.6003L89.2646 79.9844C89.2646 79.9844 95.0275 82.6786 96.1207 83.2037C97.4635 83.8407 98.0618 84.0171 98.1607 83.7546Z" fill="#FFBE9D"/>
<path id="Vector_95" d="M94.9455 81.2359C94.8981 81.3005 95.647 81.8471 96.6154 82.4625C97.5838 83.078 98.3972 83.5213 98.4359 83.4567C98.4747 83.3922 97.7258 82.8413 96.7617 82.2301C95.7977 81.619 94.9885 81.1541 94.9455 81.2359Z" fill="#EB996E"/>
<path id="Vector_96" d="M95.4871 80.1814C95.444 80.246 96.2101 80.8744 97.2086 81.5888C98.2071 82.3032 99.0335 82.8326 99.0765 82.7724C99.1195 82.7121 98.3578 82.0794 97.355 81.365C96.3522 80.6506 95.5344 80.1212 95.4871 80.1814Z" fill="#EB996E"/>
<path id="Vector_97" d="M96.0604 79.1142C96.0174 79.1745 96.7318 79.7856 97.6572 80.4742C98.5825 81.1629 99.3787 81.6707 99.4132 81.6105C99.4476 81.5502 98.7461 80.9391 97.8207 80.2504C96.8954 79.5618 96.1078 79.054 96.0604 79.1142Z" fill="#EB996E"/>
<path id="Vector_98" d="M37.4452 59.614L41.6716 59.8464C41.971 61.0263 42.3713 62.1782 42.8681 63.2895C46.2724 57.3846 48.8935 49.4698 49.5649 46.2892C49.4702 45.9765 49.354 45.6235 49.2163 45.2304C49.1132 44.6362 49.1307 44.0273 49.2679 43.44C49.3841 42.7342 49.5821 41.7788 49.6381 41.3398C49.8231 39.997 50.0383 39.7818 50.4988 39.9367C51.1358 40.1433 50.2363 43.7112 50.7571 43.7887C51.0411 43.8274 51.3811 42.6051 51.4844 41.6023C51.5877 40.5995 52.0353 37.5179 52.3667 37.2984C52.8531 36.9972 53.2748 37.4749 53.1543 38.4734C53.0338 39.4719 52.8746 42.4975 53.4039 42.5362C53.9333 42.575 54.3637 37.462 54.3637 37.462C54.3637 37.462 54.2819 36.3516 54.8931 36.3774C55.9992 36.4247 55.1384 41.8175 55.0437 42.3296C54.9749 42.6826 55.5516 42.76 55.6032 42.3641C55.6549 41.9681 55.9217 37.2468 57.045 37.2855C57.9058 37.3156 56.3779 41.7271 56.8643 42.7514C57.3506 43.7757 57.6863 39.2782 58.5126 39.3385C58.8182 39.3643 59.0463 39.4245 58.4825 41.9681C57.9323 43.9907 57.2728 45.982 56.507 47.9333C55.2159 54.9916 49.453 77.5697 40.4493 73.438C35.4138 71.1268 33.0596 59.6656 33.0596 59.6656L37.4452 59.614Z" fill="#FFBE9D"/>
<path id="Vector_99" d="M56.5159 47.9731C56.5233 47.9198 56.5378 47.8677 56.5589 47.8181C56.5977 47.7062 56.645 47.5599 56.7096 47.3878C56.8516 46.9789 57.0453 46.4108 57.2992 45.6662C57.5531 44.9216 57.8587 44.0178 58.16 42.9505C58.3149 42.4211 58.444 41.8444 58.5602 41.2289C58.6205 40.919 58.6765 40.6006 58.7152 40.2735C58.7259 40.1115 58.7259 39.9491 58.7152 39.7871C58.7152 39.6193 58.6765 39.4816 58.543 39.4772C58.4096 39.4729 58.3149 39.5547 58.2202 39.6967C58.1345 39.8487 58.0639 40.0087 58.0094 40.1745C57.8888 40.5145 57.7942 40.876 57.6995 41.2418C57.6048 41.6077 57.5187 41.9907 57.4068 42.3781C57.358 42.5902 57.2705 42.7916 57.1486 42.972C57.1179 43.0073 57.0775 43.0328 57.0324 43.0452C57.004 43.0514 56.9745 43.0512 56.9462 43.0444C56.9179 43.0377 56.8914 43.0247 56.8688 43.0064C56.8194 42.9611 56.7785 42.9071 56.7483 42.8472C56.7029 42.7415 56.6724 42.6299 56.6579 42.5158C56.6383 41.6477 56.725 40.7805 56.9162 39.9335C56.9893 39.5031 57.0668 39.0727 57.1228 38.6423C57.1486 38.4228 57.1744 38.2119 57.1787 37.9795C57.183 37.7471 57.1486 37.5018 57.0582 37.463C56.9678 37.4243 56.7483 37.5448 56.6278 37.7256C56.5088 37.9165 56.4148 38.1219 56.3481 38.3367C56.2013 38.7863 56.0905 39.2468 56.0167 39.714C55.9349 40.1874 55.8703 40.6694 55.8144 41.1601C55.7929 41.4054 55.767 41.6507 55.7455 41.9003L55.7111 42.2748C55.7157 42.3547 55.7026 42.4347 55.6729 42.5091C55.6431 42.5835 55.5974 42.6504 55.5389 42.7051C55.4652 42.759 55.3763 42.788 55.285 42.788C55.1937 42.788 55.1048 42.759 55.0311 42.7051C54.9893 42.6776 54.9539 42.6414 54.9272 42.5991C54.9005 42.5569 54.8831 42.5094 54.8761 42.4598C54.8696 42.4141 54.8696 42.3678 54.8761 42.3221V42.2317L54.9923 41.4785C55.0655 40.9707 55.1258 40.4628 55.1731 39.9464C55.2204 39.4299 55.2592 38.9091 55.2678 38.3884C55.293 37.8728 55.2408 37.3563 55.1128 36.8562C55.0832 36.7293 55.0062 36.6185 54.8977 36.5463C54.8457 36.5296 54.7899 36.5298 54.7381 36.5468C54.6863 36.5638 54.6412 36.5968 54.6093 36.641C54.4699 36.8958 54.4128 37.1874 54.4457 37.476C54.3511 38.4874 54.2435 39.4816 54.0971 40.4585C54.024 40.9449 53.9422 41.4312 53.8217 41.9089C53.7873 42.0251 53.7528 42.1456 53.7098 42.2662C53.6689 42.4122 53.583 42.5417 53.4645 42.6363C53.412 42.662 53.3524 42.6692 53.2953 42.6567C53.2383 42.6442 53.1871 42.6127 53.1503 42.5674C53.0977 42.5122 53.0581 42.4461 53.0341 42.3737C52.9876 42.2544 52.9545 42.1302 52.9351 42.0036C52.8342 41.067 52.8256 40.1228 52.9093 39.1846C52.9729 38.7472 52.9974 38.305 52.9824 37.8633C52.9685 37.6748 52.8821 37.4989 52.7414 37.3727C52.7084 37.3521 52.6715 37.3385 52.633 37.3326C52.5946 37.3266 52.5553 37.3286 52.5176 37.3382C52.4774 37.3518 52.4385 37.3691 52.4014 37.3899C52.3627 37.4243 52.367 37.3899 52.3412 37.463C52.1855 37.8501 52.0715 38.2526 52.0012 38.6638C51.9151 39.0942 51.8419 39.4859 51.7774 39.8904C51.7128 40.295 51.6525 40.6909 51.6009 41.0869C51.5493 41.4829 51.5234 41.8702 51.446 42.2575C51.3791 42.636 51.2782 43.0076 51.1447 43.3679C51.1092 43.4596 51.0675 43.5488 51.0199 43.6348C50.9596 43.7166 50.9252 43.8198 50.7616 43.8715C50.7198 43.8792 50.6766 43.8743 50.6375 43.8574C50.5985 43.8406 50.5653 43.8125 50.5421 43.7768C50.512 43.7271 50.4889 43.6735 50.4733 43.6176C50.4539 43.524 50.4424 43.429 50.4388 43.3335C50.4388 42.5975 50.5378 41.9261 50.5766 41.2763C50.6046 40.9656 50.6046 40.653 50.5766 40.3423C50.5766 40.2046 50.512 40.0411 50.4345 40.0109C50.3803 39.9843 50.3207 39.9705 50.2602 39.9705C50.1998 39.9705 50.1402 39.9843 50.0859 40.0109C49.9053 40.2049 49.7934 40.4529 49.7674 40.7168C49.7029 40.9793 49.6771 41.2461 49.6297 41.5001C49.449 42.5158 49.2596 43.3938 49.1692 44.1082C49.1268 44.4224 49.1268 44.7409 49.1692 45.0551C49.2295 45.3133 49.3198 45.5457 49.3672 45.7265C49.4145 45.9072 49.4619 46.0363 49.492 46.1569C49.508 46.203 49.5196 46.2505 49.5264 46.2989C49.5006 46.2572 49.4804 46.2124 49.4662 46.1655L49.3198 45.7351C49.2596 45.55 49.1692 45.3434 49.096 45.0594C49.05 44.7368 49.05 44.4093 49.096 44.0867C49.1778 43.3593 49.35 42.49 49.5264 41.4699C49.5738 41.216 49.5996 40.9492 49.6555 40.6737C49.6864 40.5282 49.7252 40.3846 49.7718 40.2433C49.8148 40.0868 49.9087 39.949 50.0386 39.8517C50.1168 39.8102 50.204 39.7886 50.2925 39.7886C50.381 39.7886 50.4682 39.8102 50.5464 39.8517C50.6306 39.9047 50.6997 39.9785 50.7472 40.0659C50.7947 40.1533 50.8189 40.2515 50.8176 40.3509C50.8477 40.6745 50.8477 41.0001 50.8176 41.3236C50.7875 41.9778 50.6842 42.6621 50.7014 43.3593C50.7045 43.4418 50.7146 43.5239 50.7315 43.6047C50.7315 43.6864 50.7918 43.7209 50.7832 43.7036C50.7746 43.6864 50.8649 43.6348 50.8994 43.5659C50.9418 43.4896 50.9792 43.4105 51.0113 43.3292C51.1387 42.9803 51.2324 42.62 51.291 42.2532C51.3642 41.8788 51.39 41.4915 51.4417 41.0912C51.4933 40.6909 51.5449 40.295 51.6095 39.8861C51.6741 39.4772 51.7472 39.0684 51.829 38.6509C51.899 38.2149 52.0203 37.7887 52.1905 37.3813C52.2249 37.3129 52.2769 37.255 52.3412 37.2134C52.3983 37.182 52.459 37.1575 52.5219 37.1402C52.5941 37.1196 52.6699 37.1147 52.7441 37.1258C52.8184 37.137 52.8894 37.1639 52.9523 37.2048C53.0522 37.2841 53.1347 37.3831 53.1946 37.4956C53.2546 37.6082 53.2908 37.7319 53.3009 37.859C53.3332 38.0932 53.3332 38.3307 53.3009 38.5648C53.2794 38.7843 53.2579 38.9952 53.245 39.2362C53.1611 40.1529 53.1698 41.0757 53.2708 41.9907C53.2892 42.0994 53.318 42.206 53.3569 42.3092C53.3698 42.3508 53.3918 42.3891 53.4214 42.4211C53.4214 42.4211 53.4214 42.4211 53.443 42.4211C53.443 42.5201 53.443 42.4211 53.443 42.4598C53.443 42.4986 53.443 42.4598 53.443 42.4254C53.4966 42.3535 53.5388 42.2736 53.5678 42.1887C53.6079 42.0825 53.6424 41.9706 53.6711 41.853C53.7873 41.3968 53.8647 40.9147 53.9379 40.4327C54.0842 39.4643 54.1918 38.4701 54.2822 37.463V37.4846C54.2439 37.1298 54.3209 36.7722 54.5017 36.4645C54.5707 36.3766 54.6654 36.3124 54.7726 36.2808C54.8798 36.2491 54.9942 36.2517 55.0999 36.2881C55.1902 36.3382 55.2695 36.4059 55.3331 36.4872C55.3967 36.5685 55.4432 36.6618 55.4701 36.7615C55.6079 37.2907 55.6645 37.8378 55.6379 38.3841C55.6379 38.9177 55.5906 39.4428 55.5432 39.9636C55.4959 40.4844 55.4313 40.9965 55.3582 41.5044C55.3194 41.7626 55.2807 42.0122 55.242 42.2662C55.2075 42.4254 55.2161 42.4297 55.242 42.477C55.2718 42.4972 55.3071 42.508 55.3431 42.508C55.3792 42.508 55.4144 42.4972 55.4442 42.477C55.4959 42.4383 55.5045 42.3651 55.5174 42.2231L55.5475 41.8487L55.625 41.1041C55.6767 40.6135 55.7455 40.1228 55.8273 39.6451C55.9069 39.1652 56.022 38.692 56.1716 38.2291C56.2497 37.9952 56.3552 37.7713 56.4858 37.562C56.5569 37.4492 56.6507 37.3525 56.7612 37.278C56.8226 37.2336 56.8937 37.2045 56.9686 37.1933C57.0435 37.1821 57.1199 37.189 57.1916 37.2134C57.2575 37.2541 57.3132 37.3094 57.3543 37.3751C57.3953 37.4408 57.4207 37.5151 57.4283 37.5922C57.4461 37.7132 57.4533 37.8356 57.4499 37.958C57.4499 38.1947 57.4197 38.4228 57.3939 38.6509C57.3336 39.0813 57.2519 39.5375 57.1744 39.9722C56.9895 40.7897 56.9 41.626 56.9076 42.4641C56.9197 42.5541 56.9428 42.6423 56.9764 42.7267C56.992 42.7572 57.0108 42.7861 57.0324 42.8127C57.0324 42.8127 57.0324 42.8127 57.0324 42.7826C57.129 42.627 57.2002 42.4571 57.2433 42.2791C57.3552 41.9046 57.4455 41.5259 57.5445 41.1558C57.6333 40.7875 57.741 40.424 57.8673 40.0669C57.9269 39.89 58.0048 39.7198 58.0997 39.559C58.1511 39.4714 58.2182 39.3941 58.2977 39.3309C58.341 39.2934 58.3926 39.2668 58.4483 39.2534C58.504 39.2447 58.5606 39.2447 58.6162 39.2534C58.6749 39.2593 58.731 39.2808 58.7787 39.3156C58.8264 39.3504 58.8639 39.3973 58.8873 39.4514C58.9233 39.5419 58.9423 39.6382 58.9433 39.7355C58.9466 39.9096 58.9366 40.0837 58.9132 40.2562C58.8744 40.5919 58.8099 40.9104 58.7496 41.2246C58.6248 41.8401 58.4871 42.4254 58.3192 42.9462C57.9964 44.0135 57.6737 44.9173 57.4111 45.6533C57.1486 46.3893 56.9248 46.9445 56.7741 47.3404C56.701 47.5212 56.6407 47.6632 56.5977 47.7708C56.5784 47.8412 56.551 47.9091 56.5159 47.9731Z" fill="#EB996E"/>
<path id="Vector_100" d="M33.0205 60.0995C33.8382 62.9874 35.4393 67.4419 37.1565 72.1503C37.2107 72.302 37.3086 72.4342 37.4379 72.5302C37.5673 72.6261 37.7222 72.6816 37.8831 72.6894C38.0439 72.6972 38.2035 72.6571 38.3416 72.5742C38.4796 72.4912 38.59 72.3692 38.6586 72.2235L42.8678 63.3187C42.8678 63.3187 41.852 56.0022 41.9381 56.2647C42.0242 56.5272 33.2529 57.2116 33.2529 57.2116L33.0205 60.0995Z" fill="#0A66C2"/>
<path id="Vector_101" d="M42.5073 58.6672C42.5073 58.7016 41.9822 58.8565 41.1516 59.175C40.066 59.5871 39.0202 60.097 38.027 60.6986C37.0351 61.3029 36.0989 61.9943 35.2295 62.7644C34.5624 63.3541 34.1793 63.7586 34.1535 63.7328C34.1277 63.707 34.2267 63.6123 34.3902 63.4186C34.6208 63.1495 34.865 62.8923 35.1219 62.6482C35.9702 61.8313 36.9054 61.1097 37.9108 60.4963C38.9164 59.8904 39.9841 59.394 41.0956 59.0158C41.4316 58.9 41.7735 58.8023 42.1199 58.7231C42.2453 58.6839 42.376 58.665 42.5073 58.6672Z" fill="#FAFAFA"/>
<path id="Vector_102" d="M44.1765 60.8883C43.903 60.6125 43.6658 60.303 43.4707 59.9672C42.9681 59.1836 42.536 58.3569 42.1795 57.4968C41.8228 56.6342 41.5448 55.7411 41.3489 54.8284C41.2486 54.4551 41.1979 54.0702 41.1982 53.6836C41.3266 54.0445 41.4287 54.4141 41.5038 54.7897C41.7344 55.6809 42.0219 56.5564 42.3646 57.4107C42.7226 58.2606 43.1337 59.0872 43.5955 59.8855C43.8104 60.207 44.0045 60.5419 44.1765 60.8883Z" fill="#263238"/>
<path id="Vector_103" d="M46.9825 21.4557C46.2523 22.6591 45.7996 24.0102 45.6574 25.4106C45.5152 26.8111 45.6871 28.2256 46.1604 29.5512C46.5908 30.7348 47.2794 31.9011 47.1546 33.1579C47.0298 34.4146 46.0485 35.6584 46.3928 36.8979C46.5994 37.6339 47.2278 38.1891 47.4731 38.9035C47.7529 39.7643 47.4731 40.6724 47.3225 41.5547C46.9782 43.8099 47.7012 46.0781 47.8777 48.3505C48.0541 50.623 47.4473 53.2871 45.4159 54.2769C44.8004 54.5782 43.9956 54.6643 43.4834 54.2038C42.8292 53.6228 43.01 52.5726 43.1908 51.7118C44.9726 43.1041 39.4679 34.703 40.7246 25.9919C40.9269 24.5975 41.7059 22.2304 42.7087 21.2577C43.7115 20.285 46.4961 20.3969 47.443 21.4298" fill="#263238"/>
<path id="Vector_104" d="M38.5049 46.4282C38.5049 46.4282 38.7674 46.1183 39.1548 45.5071C39.6983 44.644 40.0791 43.6885 40.2781 42.6881C40.4079 41.999 40.4527 41.2965 40.4115 40.5964C40.3362 39.7824 40.306 38.9649 40.3211 38.1475C40.3468 37.6999 40.4292 37.2574 40.5664 36.8305C40.7237 36.3908 40.9226 35.9671 41.1604 35.5652C41.6424 34.7518 42.2492 33.9943 42.8087 33.1852C43.3833 32.4205 43.7829 31.5389 43.9794 30.6028C44.0748 29.7211 44.0239 28.8297 43.8288 27.9646C43.6659 27.1605 43.6023 26.3395 43.6394 25.52C43.6906 24.8041 43.8353 24.098 44.0698 23.4197C44.3985 22.4354 44.9161 21.5246 45.5934 20.7384C45.7733 20.5246 45.9689 20.3247 46.1787 20.1401C46.2452 20.0693 46.3204 20.0071 46.4025 19.9551C46.4025 19.9551 46.1141 20.2348 45.6579 20.8159C44.5713 22.1646 43.936 23.8207 43.8417 25.5501C43.8129 26.3563 43.8837 27.1629 44.0526 27.9517C44.2579 28.84 44.3131 29.7565 44.2161 30.6631C44.0121 31.6253 43.6009 32.5315 43.011 33.3186C42.4472 34.1406 41.8404 34.8938 41.367 35.6857C41.1341 36.0727 40.9409 36.4822 40.7902 36.908C40.6541 37.3174 40.5716 37.7427 40.5449 38.1733C40.5259 38.9817 40.5489 39.7905 40.6138 40.5964C40.648 41.3106 40.593 42.0262 40.4502 42.7268C40.2346 43.7409 39.8254 44.7039 39.2451 45.5631C39.088 45.7953 38.9155 46.0168 38.7287 46.2259C38.6617 46.3013 38.5867 46.3691 38.5049 46.4282Z" fill="#455A64"/>
<path id="Vector_105" d="M34.4248 47.0675C34.4595 46.9672 34.5042 46.8706 34.5582 46.7792C34.6658 46.5769 34.8035 46.31 34.9886 45.9743C35.3501 45.2728 35.8881 44.2528 36.4175 42.9616C37.065 41.4536 37.4242 39.8376 37.4762 38.1973C37.4765 37.7246 37.4405 37.2527 37.3686 36.7856C37.2955 36.3036 37.1836 35.8172 37.1104 35.3094C37.0209 34.784 37.0326 34.2465 37.1448 33.7255C37.2904 33.1907 37.5897 32.7103 38.0056 32.344C38.8147 31.608 39.7917 31.126 40.2996 30.2609C40.7396 29.4031 40.9989 28.4642 41.0614 27.5021C41.1525 26.6202 41.3519 25.7529 41.6553 24.9198C42.3375 23.1313 43.553 21.5958 45.1371 20.5213C45.3897 20.3513 45.6527 20.1975 45.9247 20.0608C46.0166 20.0058 46.1149 19.9624 46.2174 19.9316C46.2174 19.9316 45.83 20.1382 45.1888 20.5944C44.2849 21.2394 43.5025 22.0394 42.8776 22.9573C42.4443 23.5865 42.0915 24.2675 41.8275 24.9844C41.5374 25.8194 41.3496 26.6865 41.2679 27.5667C41.1388 28.4834 41.0355 29.5077 40.4846 30.4159C39.9338 31.324 38.9266 31.8404 38.1563 32.5678C37.7636 32.9085 37.4806 33.3577 37.3428 33.859C37.2382 34.3518 37.228 34.86 37.3127 35.3567C37.3816 35.8516 37.4892 36.3423 37.5623 36.8286C37.6368 37.307 37.6713 37.7907 37.6656 38.2747C37.6071 39.9451 37.2287 41.5888 36.5509 43.1166C36.1107 44.1491 35.6106 45.155 35.0532 46.1293L34.597 46.805C34.549 46.8983 34.4913 46.9863 34.4248 47.0675Z" fill="#455A64"/>
</g>
<g id="Plant">
<path id="Vector_106" d="M176.823 168.683C176.842 168.62 176.868 168.559 176.9 168.502C176.96 168.373 177.042 168.201 177.141 167.981C177.44 167.309 177.681 166.612 177.86 165.898C178.333 164.047 178.501 161.22 177.8 157.863C177.419 156.032 176.92 154.228 176.306 152.461C175.678 150.546 174.942 148.515 174.344 146.315C173.668 144.022 173.342 141.639 173.375 139.248C173.466 136.748 174.206 134.256 175.019 131.768C175.833 129.281 176.672 126.858 176.922 124.404C177.199 122.052 176.726 119.672 175.57 117.604C174.494 115.62 173.138 113.92 172.127 112.164C171.18 110.533 170.482 108.769 170.057 106.931C169.446 104.27 169.401 101.51 169.923 98.8308C170.114 97.8504 170.402 96.8916 170.784 95.9688C170.773 96.0333 170.755 96.0967 170.733 96.1581L170.56 96.7047C170.414 97.1867 170.22 97.9098 170.035 98.8566C169.554 101.524 169.626 104.262 170.246 106.901C170.678 108.716 171.379 110.457 172.325 112.065C173.336 113.787 174.696 115.508 175.798 117.501C176.982 119.61 177.469 122.04 177.188 124.443C176.934 126.931 176.091 129.38 175.277 131.863C174.464 134.346 173.732 136.812 173.642 139.27C173.604 141.637 173.923 143.996 174.589 146.268C175.179 148.454 175.902 150.486 176.526 152.41C177.133 154.186 177.622 156 177.989 157.841C178.673 161.224 178.48 164.082 177.989 165.937C177.797 166.652 177.539 167.348 177.219 168.015L176.952 168.528C176.915 168.584 176.871 168.636 176.823 168.683Z" fill="#263238"/>
<path id="Vector_107" d="M173.504 113.898C173.504 113.898 171.447 107.309 175.139 103.452C175.168 103.421 175.205 103.399 175.245 103.387C175.286 103.376 175.329 103.376 175.37 103.388C175.41 103.399 175.447 103.422 175.475 103.453C175.504 103.484 175.523 103.523 175.531 103.564C175.729 104.653 175.974 107.967 173.504 113.898Z" fill="#0A66C2"/>
<path id="Vector_108" d="M174.74 105.648C174.733 106.057 174.687 106.463 174.602 106.862C174.464 107.701 174.305 108.683 174.133 109.767C173.961 110.852 173.801 111.837 173.668 112.672C173.63 113.079 173.558 113.483 173.453 113.877C173.412 113.47 173.421 113.06 173.479 112.655C173.547 111.902 173.681 110.869 173.866 109.733C174.051 108.597 174.253 107.581 174.412 106.836C174.475 106.429 174.585 106.03 174.74 105.648Z" fill="#263238"/>
<path id="Vector_109" d="M175.923 129.44C175.923 129.44 177.184 122.653 182.254 120.975C182.294 120.961 182.337 120.958 182.378 120.967C182.42 120.976 182.457 120.997 182.488 121.026C182.518 121.056 182.54 121.093 182.55 121.134C182.561 121.175 182.559 121.218 182.547 121.259C182.211 122.305 180.881 125.347 175.923 129.44Z" fill="#0A66C2"/>
<path id="Vector_110" d="M180.873 122.717C180.676 123.075 180.445 123.414 180.184 123.728L178.406 126.074L176.642 128.428C176.42 128.77 176.168 129.091 175.889 129.388C176.046 129.009 176.248 128.651 176.491 128.32C176.922 127.688 177.507 126.836 178.213 125.919C178.919 125.002 179.56 124.197 180.046 123.612C180.288 123.284 180.565 122.984 180.873 122.717Z" fill="#263238"/>
<path id="Vector_111" d="M174.554 146.453C174.554 146.453 173.788 139.593 178.152 136.515C178.185 136.489 178.226 136.473 178.268 136.469C178.311 136.465 178.354 136.473 178.392 136.492C178.43 136.512 178.461 136.542 178.483 136.579C178.504 136.615 178.515 136.658 178.513 136.7C178.5 137.806 178.109 141.103 174.554 146.453Z" fill="#0A66C2"/>
<path id="Vector_112" d="M177.352 138.591C177.272 138.992 177.15 139.383 176.986 139.757L175.971 142.52C175.592 143.553 175.252 144.487 174.964 145.283C174.853 145.675 174.709 146.057 174.533 146.424C174.573 146.016 174.663 145.614 174.8 145.227C175.011 144.504 175.338 143.506 175.738 142.43C176.139 141.354 176.53 140.386 176.827 139.693C176.964 139.308 177.14 138.939 177.352 138.591Z" fill="#263238"/>
<path id="Vector_113" d="M178.373 163.573C178.373 163.573 177.856 156.687 182.324 153.769C182.359 153.745 182.4 153.731 182.442 153.729C182.484 153.727 182.526 153.737 182.564 153.757C182.601 153.778 182.631 153.808 182.652 153.845C182.673 153.882 182.683 153.924 182.681 153.967C182.629 155.073 182.121 158.357 178.373 163.573Z" fill="#0A66C2"/>
<path id="Vector_114" d="M181.437 155.818C181.341 156.216 181.204 156.602 181.028 156.972C180.71 157.755 180.331 158.693 179.913 159.696C179.496 160.699 179.13 161.633 178.812 162.42C178.684 162.809 178.521 163.185 178.325 163.544C178.382 163.137 178.488 162.738 178.639 162.356C178.876 161.641 179.238 160.66 179.677 159.597C180.116 158.534 180.537 157.579 180.86 156.899C181.013 156.519 181.207 156.157 181.437 155.818Z" fill="#263238"/>
<path id="Vector_115" d="M170.543 108.11C170.543 108.11 164.44 104.908 164.307 99.5752C164.306 99.5333 164.317 99.4922 164.338 99.4561C164.359 99.42 164.39 99.3902 164.426 99.37C164.463 99.3497 164.504 99.3397 164.546 99.3409C164.588 99.3422 164.629 99.3547 164.664 99.3772C165.572 100.006 168.094 102.175 170.543 108.11Z" fill="#0A66C2"/>
<path id="Vector_116" d="M165.576 101.41C165.863 101.703 166.118 102.025 166.338 102.37C166.837 103.054 167.418 103.863 168.059 104.754L169.781 107.13C170.043 107.442 170.277 107.778 170.478 108.133C170.164 107.871 169.882 107.572 169.639 107.242C169.153 106.665 168.516 105.839 167.844 104.905C167.173 103.971 166.583 103.106 166.179 102.473C165.941 102.141 165.74 101.784 165.576 101.41Z" fill="#263238"/>
<path id="Vector_117" d="M177.114 122.257C177.114 122.257 170.813 119.438 170.37 114.114C170.366 114.072 170.374 114.03 170.393 113.992C170.412 113.955 170.441 113.923 170.476 113.901C170.512 113.879 170.553 113.867 170.595 113.866C170.637 113.866 170.678 113.877 170.714 113.899C171.657 114.471 174.304 116.477 177.114 122.257Z" fill="#0A66C2"/>
<path id="Vector_118" d="M171.756 115.869C172.059 116.142 172.334 116.447 172.574 116.777L174.441 119.054L176.314 121.322C176.594 121.619 176.848 121.94 177.071 122.282C176.741 122.038 176.44 121.756 176.176 121.443C175.659 120.892 174.971 120.108 174.243 119.218C173.516 118.327 172.879 117.496 172.432 116.889C172.169 116.575 171.943 116.233 171.756 115.869Z" fill="#263238"/>
<path id="Vector_119" d="M173.478 138.047C173.478 138.047 169.174 132.667 171.184 127.718C171.2 127.679 171.226 127.645 171.26 127.62C171.294 127.596 171.334 127.581 171.376 127.577C171.418 127.573 171.46 127.581 171.497 127.6C171.535 127.619 171.566 127.648 171.589 127.683C172.187 128.617 173.62 131.613 173.478 138.047Z" fill="#0A66C2"/>
<path id="Vector_120" d="M171.619 129.904C171.767 130.287 171.873 130.683 171.938 131.088C172.119 131.914 172.33 132.887 172.562 133.963C172.794 135.039 173.014 136.007 173.195 136.834C173.31 137.226 173.389 137.628 173.431 138.034C173.242 137.668 173.098 137.281 173.001 136.881C172.79 136.154 172.532 135.159 172.291 134.014C172.05 132.87 171.86 131.863 171.74 131.122C171.655 130.722 171.615 130.313 171.619 129.904Z" fill="#263238"/>
<path id="Vector_121" d="M177.782 156.601C177.782 156.601 171.529 153.679 171.176 148.351C171.172 148.308 171.18 148.266 171.199 148.227C171.217 148.189 171.247 148.157 171.283 148.135C171.319 148.112 171.361 148.1 171.404 148.101C171.447 148.101 171.488 148.113 171.524 148.136C172.45 148.725 175.062 150.778 177.782 156.601Z" fill="#0A66C2"/>
<path id="Vector_122" d="M172.518 150.124C172.813 150.406 173.081 150.716 173.318 151.049L175.147 153.352L176.981 155.654C177.256 155.956 177.504 156.281 177.721 156.627C177.4 156.376 177.111 156.087 176.86 155.766C176.348 155.207 175.677 154.411 174.962 153.507C174.248 152.603 173.628 151.764 173.189 151.148C172.926 150.834 172.701 150.49 172.518 150.124Z" fill="#263238"/>
<path id="Vector_123" d="M190.226 129.47C190.226 129.47 190.226 129.521 190.226 129.62C190.226 129.719 190.226 129.883 190.226 130.051C190.226 130.481 190.183 131.028 190.152 131.725C190.075 133.197 189.959 135.25 189.825 137.703C189.395 140.199 188.104 142.967 186.382 145.657C185.13 147.636 183.8 149.435 182.681 151.11C181.66 152.579 180.742 154.118 179.935 155.715C179.401 156.794 178.968 157.921 178.644 159.08C178.536 159.489 178.45 159.812 178.403 160.031C178.383 160.146 178.352 160.258 178.312 160.367C178.314 160.251 178.328 160.136 178.356 160.023C178.386 159.799 178.45 159.472 178.549 159.055C178.839 157.875 179.25 156.728 179.776 155.633C180.576 154.023 181.492 152.474 182.517 150.998C183.645 149.311 184.949 147.507 186.197 145.54C187.897 142.863 189.163 140.139 189.64 137.681C189.812 135.233 189.954 133.184 190.071 131.712C190.127 131.015 190.174 130.46 190.208 130.042C190.208 129.87 190.239 129.724 190.251 129.612C190.237 129.566 190.228 129.518 190.226 129.47Z" fill="#263238"/>
<path id="Vector_124" d="M186.503 145.162C186.503 145.162 189.15 138.792 185.823 134.613C185.797 134.58 185.762 134.554 185.723 134.539C185.683 134.524 185.64 134.521 185.599 134.529C185.557 134.537 185.519 134.556 185.488 134.585C185.457 134.613 185.434 134.65 185.423 134.691C185.126 135.758 184.579 139.033 186.503 145.162Z" fill="#0A66C2"/>
<path id="Vector_125" d="M186.019 136.839C186.133 137.232 186.204 137.636 186.23 138.044C186.324 138.793 186.428 139.83 186.51 140.979C186.591 142.128 186.63 143.17 186.63 143.927C186.656 144.336 186.631 144.747 186.557 145.15C186.483 144.748 186.447 144.34 186.449 143.932C186.393 143.071 186.324 142.094 186.251 140.996C186.178 139.899 186.109 138.905 186.049 138.061C185.999 137.656 185.989 137.246 186.019 136.839Z" fill="#263238"/>
<g id="Group_7" opacity="0.3">
<path id="Vector_126" d="M186.502 145.163C186.502 145.163 189.149 138.793 185.822 134.614C185.796 134.581 185.761 134.555 185.722 134.54C185.682 134.525 185.639 134.522 185.598 134.53C185.556 134.538 185.518 134.557 185.487 134.586C185.456 134.614 185.433 134.651 185.422 134.692C185.125 135.759 184.578 139.034 186.502 145.163Z" fill="black"/>
</g>
<path id="Vector_127" d="M178.302 160.523C178.302 160.523 180.424 153.955 176.766 150.064C176.737 150.033 176.701 150.011 176.661 149.999C176.62 149.988 176.578 149.987 176.537 149.998C176.497 150.01 176.46 150.032 176.431 150.062C176.402 150.093 176.383 150.131 176.374 150.172C176.168 151.257 175.888 154.571 178.302 160.523Z" fill="#0A66C2"/>
<path id="Vector_128" d="M177.146 152.251C177.295 152.634 177.399 153.032 177.455 153.439C177.61 154.175 177.795 155.203 177.972 156.34C178.148 157.476 178.269 158.513 178.333 159.266C178.389 159.673 178.396 160.085 178.355 160.493C178.253 160.098 178.184 159.695 178.148 159.288C178.024 158.449 177.877 157.467 177.718 156.378C177.559 155.29 177.404 154.308 177.288 153.469C177.2 153.069 177.153 152.661 177.146 152.251Z" fill="#263238"/>
<g id="Group_8" opacity="0.3">
<path id="Vector_129" d="M178.303 160.523C178.303 160.523 180.425 153.955 176.767 150.064C176.738 150.033 176.702 150.011 176.662 149.999C176.621 149.988 176.579 149.987 176.538 149.998C176.498 150.01 176.461 150.032 176.432 150.062C176.403 150.093 176.384 150.131 176.375 150.172C176.169 151.257 175.889 154.571 178.303 160.523Z" fill="black"/>
</g>
<path id="Vector_130" d="M189.876 137.377C189.876 137.377 195.527 133.418 194.959 128.107C194.954 128.065 194.939 128.025 194.913 127.992C194.888 127.958 194.853 127.933 194.814 127.918C194.775 127.903 194.732 127.899 194.691 127.906C194.65 127.914 194.611 127.932 194.58 127.96C193.758 128.701 191.554 131.162 189.876 137.377Z" fill="#0A66C2"/>
<g id="Group_9" opacity="0.3">
<path id="Vector_131" d="M189.878 137.376C189.878 137.376 195.529 133.417 194.961 128.106C194.956 128.064 194.941 128.024 194.915 127.991C194.89 127.957 194.855 127.932 194.816 127.917C194.777 127.902 194.734 127.898 194.693 127.905C194.652 127.913 194.613 127.931 194.582 127.959C193.76 128.7 191.556 131.161 189.878 137.376Z" fill="black"/>
</g>
<path id="Vector_132" d="M193.934 130.09C193.822 130.484 193.665 130.864 193.465 131.222C193.142 131.902 192.673 132.831 192.127 133.847C191.58 134.863 191.055 135.762 190.65 136.399C190.451 136.757 190.21 137.089 189.932 137.389C190.083 137.011 190.27 136.647 190.491 136.305C190.896 135.56 191.373 134.691 191.898 133.722L193.302 131.14C193.478 130.77 193.69 130.418 193.934 130.09Z" fill="#263238"/>
<path id="Vector_133" d="M180.584 154.01C180.584 154.01 187.401 152.947 189.226 147.929C189.241 147.89 189.245 147.847 189.237 147.806C189.229 147.765 189.21 147.727 189.182 147.696C189.154 147.665 189.118 147.642 189.078 147.63C189.038 147.618 188.995 147.617 188.955 147.628C187.892 147.946 184.81 149.173 180.584 154.01Z" fill="#0A66C2"/>
<g id="Group_10" opacity="0.3">
<path id="Vector_134" d="M180.585 154.01C180.585 154.01 187.402 152.947 189.227 147.929C189.242 147.89 189.246 147.847 189.238 147.806C189.23 147.765 189.211 147.727 189.183 147.696C189.155 147.665 189.119 147.642 189.079 147.63C189.039 147.618 188.996 147.617 188.956 147.628C187.893 147.946 184.811 149.173 180.585 154.01Z" fill="black"/>
</g>
<path id="Vector_135" d="M187.436 149.26C187.16 149.561 186.851 149.831 186.515 150.065C185.925 150.538 185.095 151.166 184.161 151.838C183.227 152.509 182.353 153.082 181.708 153.478C181.371 153.712 181.007 153.905 180.623 154.05C180.928 153.778 181.258 153.534 181.609 153.323L184.01 151.627L186.407 149.905C186.726 149.654 187.071 149.438 187.436 149.26Z" fill="#263238"/>
<path id="Vector_136" d="M174.076 166.561L172.088 179.946H184.483L182.878 166.561H174.076Z" fill="#455A64"/>
<path id="Vector_137" d="M183.377 170.706C183.377 170.779 181.139 170.835 178.38 170.835C175.621 170.835 173.379 170.779 173.379 170.706C175.043 170.578 176.712 170.535 178.38 170.577C180.047 170.535 181.714 170.578 183.377 170.706Z" fill="#263238"/>
<path id="Vector_138" d="M183.618 171.773C183.618 171.846 181.307 171.902 178.454 171.902C175.6 171.902 173.289 171.846 173.289 171.773C173.289 171.699 175.6 171.644 178.454 171.644C181.307 171.644 183.618 171.699 183.618 171.773Z" fill="#263238"/>
</g>
<g id="Boxes">
<path id="Vector_139" d="M135.419 36.7089C135.419 36.7089 135.303 36.7089 135.079 36.7089C134.752 36.6895 134.424 36.6895 134.097 36.7089C132.833 36.7829 131.592 37.0741 130.426 37.5697C128.579 38.3439 126.972 39.5963 125.769 41.1979C125.028 42.1979 124.477 43.3256 124.143 44.5248C123.389 47.3813 123.796 50.4198 125.275 52.9776C125.677 53.6857 126.169 54.3394 126.738 54.9229C127.311 55.5411 127.98 56.0641 128.718 56.4723C129.475 56.8984 130.332 57.1139 131.201 57.0964C132.097 57.0856 132.955 56.7384 133.607 56.1237C133.922 55.7937 134.169 55.405 134.333 54.9796C134.498 54.5543 134.577 54.1007 134.567 53.6447C134.56 52.6973 134.259 51.7753 133.706 51.0064C132.591 49.4355 130.783 48.381 128.86 47.8129C126.865 47.2526 124.758 47.223 122.748 47.7268C121.722 47.9937 120.733 48.387 119.804 48.8975C118.866 49.4268 118.014 50.0958 117.278 50.8816C117.102 51.0839 116.899 51.2689 116.74 51.4927L116.254 52.1469C115.958 52.6079 115.693 53.0881 115.462 53.5844C115.001 54.592 114.687 55.66 114.528 56.7564C114.215 58.9465 114.513 61.1804 115.389 63.2122C116.225 65.1974 117.682 66.8584 119.542 67.9464C120.443 68.4615 121.45 68.7661 122.486 68.8373C123.501 68.8941 124.511 68.6517 125.391 68.1401C126.263 67.6577 126.953 66.9015 127.353 65.9882C127.731 65.088 127.757 64.079 127.426 63.1605C127.086 62.2743 126.53 61.4873 125.808 60.8708C125.108 60.2658 124.301 59.7972 123.428 59.4893C121.726 58.9527 119.905 58.9213 118.186 59.3989C116.577 59.8348 115.1 60.6579 113.882 61.7962C112.773 62.8586 111.929 64.166 111.416 65.6137C110.52 68.1256 110.561 70.8768 111.532 73.3607C112.29 75.215 113.509 76.8447 115.074 78.0949C116.06 78.8856 117.158 79.5253 118.332 79.9929C118.737 80.1436 119.051 80.2555 119.266 80.3157L119.585 80.419C119.585 80.419 119.473 80.3975 119.258 80.3372C118.94 80.2521 118.627 80.1501 118.319 80.0317C117.13 79.5846 116.018 78.9544 115.023 78.1638C113.431 76.9144 112.188 75.2767 111.412 73.408C110.423 70.9007 110.373 68.1208 111.27 65.5793C111.783 64.1096 112.637 62.7823 113.762 61.7058C114.996 60.5447 116.496 59.7025 118.13 59.2526C119.886 58.7628 121.745 58.7927 123.484 59.3387C124.382 59.6519 125.213 60.1324 125.933 60.7546C126.683 61.3912 127.261 62.2069 127.612 63.1261C127.965 64.0857 127.95 65.1425 127.568 66.0914C127.144 67.0408 126.424 67.8273 125.516 68.3338C124.604 68.8652 123.557 69.1194 122.503 69.0654C121.442 68.9914 120.411 68.6764 119.49 68.1444C117.588 67.0412 116.095 65.3515 115.234 63.3284C114.339 61.2593 114.033 58.984 114.347 56.7521C114.511 55.6336 114.833 54.5439 115.302 53.5155C115.539 53.0087 115.809 52.5184 116.112 52.0479L116.611 51.3808C116.77 51.1527 116.977 50.9504 117.157 50.7525C117.911 49.9518 118.782 49.2698 119.74 48.7296C120.69 48.2094 121.703 47.8103 122.752 47.5418C124.801 47.0285 126.948 47.0596 128.98 47.6322C130.943 48.2175 132.78 49.2891 133.938 50.916C134.52 51.7171 134.836 52.6804 134.842 53.6705C134.863 54.6448 134.496 55.5876 133.822 56.2915C133.133 56.9379 132.227 57.302 131.283 57.3116C130.379 57.3321 129.487 57.1075 128.7 56.6617C127.945 56.2448 127.262 55.7085 126.678 55.0735C126.102 54.477 125.603 53.8104 125.193 53.0895C123.688 50.4842 123.279 47.3882 124.057 44.4817C124.401 43.2687 124.966 42.1293 125.722 41.1204C126.947 39.5066 128.582 38.2508 130.456 37.4836C131.631 36.9976 132.883 36.7237 134.153 36.6745C134.483 36.6528 134.814 36.6528 135.143 36.6745L135.419 36.7089Z" fill="#263238"/>
<path id="Vector_140" d="M149.789 79.7734H89.4443V126.315H149.789V79.7734Z" fill="#0A66C2"/>
<path id="Vector_141" d="M89.4443 79.7734L100.591 90.1716H159.912L149.789 79.7734H89.4443Z" fill="#0A66C2"/>
<path id="Vector_142" d="M89.4443 79.7736L149.806 79.666H149.853L149.888 79.6961L159.907 89.9867L160.011 90.0943L160.196 90.2837H159.929L100.609 90.2363H100.583L89.4443 79.7736L100.634 90.1029H100.587L159.907 90.0599L159.83 90.2492L159.722 90.1416L149.707 79.8511L149.785 79.8855L89.4443 79.7736Z" fill="#263238"/>
<path id="Vector_143" d="M107.572 101.236C107.245 101.248 106.936 101.388 106.711 101.625C106.486 101.863 106.363 102.179 106.369 102.506C106.375 102.833 106.509 103.145 106.743 103.374C106.976 103.603 107.29 103.732 107.617 103.732C107.944 103.732 108.258 103.603 108.492 103.374C108.725 103.145 108.859 102.833 108.865 102.506C108.871 102.179 108.748 101.863 108.523 101.625C108.299 101.388 107.989 101.248 107.662 101.236" fill="#263238"/>
<path id="Vector_144" d="M121.831 101.236C121.506 101.249 121.198 101.388 120.974 101.625C120.751 101.862 120.629 102.177 120.635 102.503C120.641 102.829 120.775 103.139 121.007 103.367C121.24 103.595 121.553 103.723 121.879 103.723C122.204 103.723 122.517 103.595 122.75 103.367C122.982 103.139 123.116 102.829 123.122 102.503C123.128 102.177 123.007 101.862 122.783 101.625C122.559 101.388 122.251 101.249 121.926 101.236" fill="#263238"/>
<path id="Vector_145" d="M121.912 112.376C121.663 111.425 121.259 110.522 120.716 109.703C120.111 108.827 119.335 108.083 118.434 107.516C117.348 106.795 116.081 106.394 114.777 106.358C113.474 106.323 112.186 106.654 111.062 107.314C110.133 107.833 109.318 108.532 108.665 109.371C108.076 110.16 107.624 111.042 107.326 111.98C107.329 111.91 107.341 111.84 107.361 111.773C107.402 111.579 107.455 111.388 107.52 111.201C107.756 110.509 108.1 109.86 108.54 109.277C109.189 108.398 110.014 107.665 110.963 107.125C112.116 106.436 113.442 106.09 114.785 106.127C116.127 106.163 117.432 106.581 118.546 107.331C119.463 107.92 120.245 108.694 120.845 109.604C121.253 110.211 121.563 110.879 121.761 111.584C121.814 111.775 121.856 111.969 121.886 112.165C121.901 112.234 121.91 112.305 121.912 112.376Z" fill="#263238"/>
<path id="Vector_146" opacity="0.5" d="M89.582 80.2861L100.256 93.8175H149.789V90.1721H100.591L89.582 80.2861Z" fill="black"/>
<path id="Vector_147" d="M137.888 126.212C137.828 126.212 137.776 118.116 137.776 108.136C137.776 98.1551 137.828 90.0596 137.888 90.0596C137.949 90.0596 138.004 98.1508 138.004 108.136C138.004 118.121 137.953 126.212 137.888 126.212Z" fill="#263238"/>
<path id="Vector_148" d="M147.365 115.658H142.046V121.671H147.365V115.658Z" fill="#F5F5F5"/>
<path id="Vector_149" d="M89.4441 79.7734L77.0576 90.1716H89.4441V79.7734Z" fill="#0A66C2"/>
<g id="Group_11" opacity="0.4">
<path id="Vector_150" d="M89.4441 79.7734L77.0576 90.1716H89.4441V79.7734Z" fill="black"/>
</g>
<path id="Vector_151" d="M151.571 126.315H82.1885V179.83H151.571V126.315Z" fill="#0A66C2"/>
<path id="Vector_152" opacity="0.3" d="M151.571 126.315H82.1885V179.83H151.571V126.315Z" fill="black"/>
<path id="Vector_153" d="M134.188 179.45C134.128 179.45 134.076 167.524 134.076 152.814C134.076 138.103 134.128 126.173 134.188 126.173C134.248 126.173 134.3 138.099 134.3 152.814C134.3 167.529 134.248 179.45 134.188 179.45Z" fill="#263238"/>
<path id="Vector_154" d="M145.688 167.65H140.368V173.663H145.688V167.65Z" fill="#F5F5F5"/>
<path id="Vector_155" d="M111.235 126.457H103.354V137.875H111.235V126.457Z" fill="#263238"/>
<path id="Vector_156" d="M111.235 168.252H103.354V179.67H111.235V168.252Z" fill="#263238"/>
<path id="Vector_157" d="M150.969 126.316H150.788H150.267L148.266 126.337L140.893 126.371L116.581 126.427L92.2595 126.397L84.8913 126.363L82.89 126.341L84.8913 126.32L92.2595 126.285L116.581 126.251L140.893 126.285L148.266 126.32L150.267 126.341H150.788L150.969 126.316Z" fill="#263238"/>
</g>
<g id="speech-bubble">
<path id="Vector_158" d="M32.0615 33.6672L24.5039 31.8079H24.5598C22.6084 33.0492 20.3519 33.7269 18.0395 33.7662C16.6705 33.7724 15.3083 33.5737 13.9981 33.1766C11.6948 32.437 9.65126 31.0535 8.10914 29.1895C6.56702 27.3255 5.59075 25.059 5.29571 22.6579C5.06398 20.842 5.23457 18.9972 5.79538 17.2546C6.35618 15.5119 7.29348 13.9139 8.54082 12.574C9.19651 11.8537 9.93139 11.2098 10.7315 10.6544C11.1361 10.4005 11.5406 10.138 11.9624 9.91847L12.6037 9.60859L12.9222 9.45365L13.2579 9.33314C14.9861 8.66326 16.8399 8.37974 18.6893 8.5025C21.1679 8.66343 23.5434 9.55447 25.5164 11.0633C27.4893 12.5721 28.9715 14.6312 29.7761 16.9811C30.2231 18.2956 30.4584 19.6728 30.4733 21.0612C30.4841 23.3685 29.857 25.634 28.6614 27.6074V27.5385C30.7617 31.3302 31.8204 33.2454 32.0572 33.6672C31.8118 33.2368 30.7143 31.356 28.5409 27.6031V27.5686V27.5342C29.6936 25.5799 30.289 23.3472 30.2624 21.0784C30.2425 19.7123 30.0042 18.3581 29.5566 17.0672C28.7608 14.7654 27.3036 12.7495 25.3674 11.272C23.4313 9.79442 21.1024 8.92089 18.6721 8.76073C16.8591 8.64257 15.0422 8.92165 13.3482 9.57846L13.0211 9.69467L12.707 9.84961L12.0786 10.1509C11.6482 10.3704 11.2695 10.6243 10.8692 10.8739C10.0846 11.4144 9.36276 12.0409 8.71728 12.7418C7.49275 14.0572 6.57235 15.6258 6.02124 17.3364C5.47013 19.047 5.30178 20.8578 5.52812 22.6407C5.92713 25.907 7.60291 28.8826 10.1892 30.917C11.3455 31.8332 12.6577 32.5331 14.0627 32.9829C15.3493 33.3806 16.6885 33.5823 18.0352 33.5811C20.3198 33.5567 22.5536 32.9029 24.491 31.6917H24.5168H24.5641L32.0615 33.6672Z" fill="#263238"/>
<path id="Vector_159" d="M16.8164 15.5177L17.1995 21.8444C17.2148 22.0939 17.3208 22.3293 17.4976 22.5061C17.6744 22.6828 17.9097 22.7889 18.1592 22.8042C18.4218 22.819 18.6801 22.7327 18.881 22.563C19.0819 22.3933 19.2102 22.1531 19.2395 21.8917L19.941 15.5521C19.9533 15.4387 19.9412 15.324 19.9057 15.2156C19.8702 15.1072 19.8121 15.0075 19.7352 14.9233C19.6583 14.839 19.5643 14.7721 19.4596 14.7269C19.3548 14.6818 19.2417 14.6594 19.1276 14.6612H17.5911C17.4833 14.6645 17.3773 14.6894 17.2793 14.7346C17.1814 14.7799 17.0936 14.8444 17.0213 14.9244C16.9489 15.0044 16.8935 15.0982 16.8583 15.2001C16.8231 15.3021 16.8088 15.4101 16.8164 15.5177Z" fill="#0A66C2"/>
<path id="Vector_160" d="M19.8307 26.3375C19.7344 26.6265 19.5545 26.8805 19.3139 27.0673C19.0733 27.2541 18.7827 27.3655 18.4789 27.3872C18.175 27.409 17.8715 27.3401 17.6068 27.1894C17.342 27.0388 17.1279 26.813 16.9914 26.5406C16.8549 26.2683 16.8022 25.9616 16.84 25.6593C16.8778 25.357 17.0043 25.0727 17.2036 24.8423C17.4029 24.6119 17.6661 24.4458 17.9597 24.3649C18.2534 24.284 18.5645 24.292 18.8537 24.3878C19.0459 24.4515 19.2238 24.5526 19.3769 24.6851C19.5301 24.8176 19.6557 24.979 19.7464 25.1601C19.8372 25.3412 19.8913 25.5384 19.9058 25.7404C19.9202 25.9424 19.8947 26.1453 19.8307 26.3375Z" fill="#0A66C2"/>
</g>
</g>
</svg>
