<svg width="22" height="22" viewBox="0 0 22 22" fill="none" xmlns="http://www.w3.org/2000/svg">
<g id="google">
<path id="vector" d="M20.6259 11.2138C20.6259 10.4224 20.5604 9.84488 20.4186 9.246H11.1974V12.8179H16.61C16.501 13.7056 15.9117 15.0424 14.6021 15.9407L14.5838 16.0602L17.4993 18.2737L17.7013 18.2935C19.5565 16.6145 20.6259 14.144 20.6259 11.2138Z" fill="#4285F4"/>
<path id="vector_2" d="M11.1968 20.625C13.8485 20.625 16.0747 19.7694 17.7007 18.2936L14.6015 15.9407C13.7722 16.5075 12.6591 16.9032 11.1968 16.9032C8.59961 16.9032 6.39527 15.2242 5.60948 12.9035L5.4943 12.9131L2.46265 15.2125L2.423 15.3205C4.03806 18.4646 7.35552 20.625 11.1968 20.625Z" fill="#34A853"/>
<path id="vector_3" d="M5.61006 12.9036C5.40272 12.3047 5.28273 11.663 5.28273 11C5.28273 10.3369 5.40272 9.69524 5.59915 9.09636L5.59366 8.96881L2.524 6.63257L2.42357 6.67938C1.75792 7.98412 1.37598 9.44929 1.37598 11C1.37598 12.5507 1.75792 14.0158 2.42357 15.3205L5.61006 12.9036Z" fill="#FBBC05"/>
<path id="vector_4" d="M11.1969 5.09664C13.0411 5.09664 14.2851 5.87733 14.9945 6.52974L17.7663 3.8775C16.0639 2.32681 13.8486 1.375 11.1969 1.375C7.35554 1.375 4.03807 3.53526 2.423 6.6794L5.59859 9.09638C6.39529 6.77569 8.59964 5.09664 11.1969 5.09664Z" fill="#EB4335"/>
</g>
</svg>
