<svg width="15" height="15" viewBox="0 0 15 15" fill="none" xmlns="http://www.w3.org/2000/svg">
<g id="SVG">
<path id="Vector" d="M7.9375 14.5C9.79402 14.5 11.5745 13.7625 12.8872 12.4497C14.2 11.137 14.9375 9.35652 14.9375 7.5C14.9375 5.64348 14.2 3.86301 12.8872 2.55025C11.5745 1.2375 9.79402 0.5 7.9375 0.5C6.08098 0.5 4.30051 1.2375 2.98775 2.55025C1.675 3.86301 0.9375 5.64348 0.9375 7.5C0.9375 9.35652 1.675 11.137 2.98775 12.4497C4.30051 13.7625 6.08098 14.5 7.9375 14.5ZM8.75125 6.2645L7.87625 10.3814C7.815 10.6789 7.90163 10.8478 8.14225 10.8478C8.312 10.8478 8.56838 10.7865 8.7425 10.6325L8.6655 10.9965C8.41437 11.2993 7.8605 11.5197 7.38363 11.5197C6.7685 11.5197 6.50688 11.1505 6.67663 10.3656L7.32237 7.33113C7.37837 7.07475 7.32763 6.982 7.07125 6.91987L6.67663 6.849L6.74837 6.51562L8.75125 6.2645ZM7.9375 5.3125C7.70544 5.3125 7.48288 5.22031 7.31878 5.05622C7.15469 4.89212 7.0625 4.66956 7.0625 4.4375C7.0625 4.20544 7.15469 3.98288 7.31878 3.81878C7.48288 3.65469 7.70544 3.5625 7.9375 3.5625C8.16956 3.5625 8.39212 3.65469 8.55622 3.81878C8.72031 3.98288 8.8125 4.20544 8.8125 4.4375C8.8125 4.66956 8.72031 4.89212 8.55622 5.05622C8.39212 5.22031 8.16956 5.3125 7.9375 5.3125Z" fill="#C9C9C9"/>
</g>
</svg>
