<svg width="17" height="16" viewBox="0 0 17 16" fill="none" xmlns="http://www.w3.org/2000/svg">
<g id="Frame">
<path id="Vector" d="M7.72339 2C5.29075 2.00438 4.01687 2.06411 3.20277 2.87835C2.32422 3.75704 2.32422 5.17128 2.32422 7.99972C2.32422 10.8282 2.32422 12.2425 3.20277 13.1211C4.08132 13.9999 5.49533 13.9999 8.32339 13.9999C11.1513 13.9999 12.5654 13.9999 13.4439 13.1211C14.258 12.3069 14.3177 11.0328 14.3221 8.59979" stroke="#0A66C2" stroke-width="1.2" stroke-linecap="round" stroke-linejoin="round"/>
<path id="Vector_2" d="M14.0277 2.33034L7.68945 8.70533M14.0277 2.33034C13.6983 2.0006 11.4799 2.03133 11.0109 2.03801M14.0277 2.33034C14.357 2.66009 14.3263 4.88141 14.3196 5.35102" stroke="#0A66C2" stroke-width="1.2" stroke-linecap="round" stroke-linejoin="round"/>
</g>
</svg>
