<svg width="17" height="16" viewBox="0 0 17 16" fill="none" xmlns="http://www.w3.org/2000/svg">
<g id="map-pin">
<path id="Vector" d="M14.1055 6.66699C14.1055 10.082 10.8924 13.14 9.16882 14.5347C8.54117 15.0426 7.66977 15.0426 7.04212 14.5347C5.31855 13.14 2.10547 10.082 2.10547 6.66699C2.10547 5.07569 2.73761 3.54957 3.86283 2.42435C4.98805 1.29913 6.51417 0.666992 8.10547 0.666992C9.69677 0.666992 11.2229 1.29913 12.3481 2.42435C13.4733 3.54957 14.1055 5.07569 14.1055 6.66699Z" fill="#716E90"/>
<path id="Vector_2" d="M8.10547 8.66699C9.21004 8.66699 10.1055 7.77156 10.1055 6.66699C10.1055 5.56242 9.21004 4.66699 8.10547 4.66699C7.0009 4.66699 6.10547 5.56242 6.10547 6.66699C6.10547 7.77156 7.0009 8.66699 8.10547 8.66699Z" fill="white"/>
</g>
</svg>
