<svg width="17" height="17" viewBox="0 0 17 17" fill="none" xmlns="http://www.w3.org/2000/svg">
<g id="Frame">
<path id="Vector" d="M8.61686 4.24219L7.04222 11.6325C6.91692 12.2207 6.98588 12.4409 7.4178 12.8632L9.16453 14.5711C9.3948 14.7963 9.50993 14.9089 9.653 14.9089C9.79606 14.9089 9.9112 14.7963 10.1415 14.5711L11.8882 12.8632C12.3201 12.4409 12.3891 12.2207 12.2638 11.6325L10.6891 4.24219" stroke="#131313" stroke-linecap="round" stroke-linejoin="round"/>
<path id="Vector_2" d="M7.69019 2.32455C7.64526 1.97529 7.62279 1.80066 7.72519 1.68793C7.82766 1.5752 8.00879 1.5752 8.37106 1.5752H10.9336C11.2959 1.5752 11.477 1.5752 11.5795 1.68793C11.6819 1.80066 11.6594 1.97529 11.6145 2.32455L11.5806 2.58807C11.4855 3.32665 11.4381 3.69593 11.2006 3.93552C11.162 3.97445 11.1202 4.01027 11.0757 4.04264C10.8015 4.24186 10.4185 4.24186 9.65233 4.24186C8.88619 4.24186 8.50313 4.24186 8.22899 4.04264C8.18446 4.01027 8.14266 3.97445 8.10406 3.93552C7.86659 3.69593 7.81913 3.32665 7.72406 2.58806L7.69019 2.32455Z" stroke="#131313" stroke-linecap="round" stroke-linejoin="round"/>
<path id="Vector_3" d="M7.31966 10.2422C6.91449 10.7039 6.5714 10.9089 6.31966 10.9089C5.99674 10.9089 5.41539 10.0951 5.15739 9.50579C5.03632 9.22925 4.97579 9.09099 4.98783 8.91605C4.99987 8.74112 5.07915 8.61319 5.23773 8.35732C6.13441 6.91045 7.66267 5.58961 8.65301 4.24219" stroke="#131313" stroke-linejoin="round"/>
</g>
</svg>
