<svg width="20" height="21" viewBox="0 0 20 21" fill="none" xmlns="http://www.w3.org/2000/svg">
<g id="Social icon">
<path id="Vector" d="M6.2918 18.6246C13.8371 18.6246 17.9652 12.3719 17.9652 6.95118C17.9652 6.7754 17.9613 6.59572 17.9535 6.41993C18.7566 5.83918 19.4496 5.11985 20 4.29572C19.2521 4.62847 18.458 4.84579 17.6449 4.94025C18.5011 4.42706 19.1421 3.62086 19.4492 2.67111C18.6438 3.14843 17.763 3.48514 16.8445 3.66681C16.2257 3.00927 15.4075 2.5739 14.5164 2.42801C13.6253 2.28212 12.711 2.43384 11.9148 2.85971C11.1186 3.28559 10.4848 3.96189 10.1115 4.78406C9.73825 5.60623 9.64619 6.52848 9.84961 7.40822C8.21874 7.32638 6.62328 6.90272 5.16665 6.16472C3.71002 5.42671 2.42474 4.39083 1.39414 3.12423C0.870333 4.02734 0.710047 5.096 0.945859 6.11304C1.18167 7.13008 1.79589 8.01917 2.66367 8.59962C2.01219 8.57894 1.37498 8.40353 0.804688 8.0879V8.13868C0.804104 9.08643 1.13175 10.0051 1.73192 10.7386C2.3321 11.4721 3.16777 11.9751 4.09687 12.1621C3.49338 12.3272 2.85999 12.3513 2.2457 12.2324C2.50788 13.0475 3.01798 13.7604 3.70481 14.2716C4.39164 14.7828 5.22093 15.0668 6.07695 15.084C4.62369 16.2256 2.82848 16.8447 0.980469 16.8418C0.652739 16.8413 0.325333 16.8212 0 16.7817C1.87738 17.9861 4.06128 18.6258 6.2918 18.6246Z" fill="white"/>
</g>
</svg>
